<?xml version="1.0" encoding="UTF-8"?><svg id="Layer_2" xmlns="http://www.w3.org/2000/svg" viewBox="0 0 239.09 239.08"><defs><style>.cls-1{fill:#fff;}.cls-2{fill:#34a048;}</style></defs><g id="Layer_1-2"><rect class="cls-1" width="239.09" height="239.08"/><path class="cls-2" d="M0,0V239.08H55.34c2.28-17.48,7.02-35.34,9.99-50.55,15.83,43.05,43.35,4.85,62.74,32.55,2.85,4.07,3.21,10.56,2.43,18h108.58V0H0ZM101.69,65.74c6.09-17.24,27.99-33.29,41.9-44.16,.33,1.93,.66,3.86,1,5.79,.6,3.32,1.66,36.42-9.27,51.41-1.75,2.28-22.08,29.63-26.37,30.53-4.38-13.33-11.76-30.83-7.26-43.56m-39.6,106.25c-32.52-46.9-.15-72.83,17.06-94.12,2.01-2.48,4.02-4.97,6.04-7.45,7.74,34.54-25.79,48.89-23.1,101.57m12.55,11.23c-10.23-25.3,9.87-61.24,21.78-81.23,2.7,24.43,18.5,42.85,21.79,67.75,4.18,31.64-31.64,42.98-43.57,13.47m43.85-66.93c3.68-9.39,19.1-22,27.54-30.52,.45,1.39,.9,2.78,1.35,4.17h0c3.7,11.62,10.56,28.2,5.34,38.87-4.94,10.12-20.2,18.94-27.84,27.55-3.85-16.16-11.92-25.94-6.39-40.07m30.16,89.57c-20.71,4.91-26.57-10.15-22.99-22.98,3.58-12.83,20.59-28.05,31.34-42.38s17.68-20.2,21.38-24.17c1.09,26.74-7.06,84.16-29.74,89.53m17.11-90.09c-1.35-8.46-3.54-16.78-6.05-24.96,4.77-9.63,23.58-16.72,32.47-22.45-3.16,21.19-11.97,32.49-26.42,47.41m27.41-70.09c-8.75,13.38-26.69,20.14-36.93,32.5-1.46-.24,2.63-32.19,2.18-36.18-2.4-20.82,25.85-31.79,44.37-38.11-3.55,12.85-2.34,30.65-9.63,41.79"/></g></svg>