<?xml version="1.0" encoding="utf-8"?>
<!-- Generator: Adobe Illustrator 26.3.1, SVG Export Plug-In . SVG Version: 6.00 Build 0)  -->
<svg version="1.1" id="Layer_1" xmlns="http://www.w3.org/2000/svg" xmlns:xlink="http://www.w3.org/1999/xlink" x="0px" y="0px"
	 viewBox="0 0 3119.72 893.43" style="enable-background:new 0 0 3119.72 893.43;" xml:space="preserve">
<style type="text/css">
	.st0{clip-path:url(#SVGID_00000060748545681326581580000002819605180489795509_);fill:#32A02D;}
</style>
<g>
	<defs>
		<rect id="SVGID_1_" y="0" width="3119.72" height="893.43"/>
	</defs>
	<clipPath id="SVGID_00000063614841103617130780000015724541109575303082_">
		<use xlink:href="#SVGID_1_"  style="overflow:visible;"/>
	</clipPath>
	<path style="clip-path:url(#SVGID_00000063614841103617130780000015724541109575303082_);fill:#32A02D;" d="M73.09,435.05
		c0-22.12,4.21-42.94,12.63-62.42c8.41-19.48,19.85-36.55,34.28-51.23c14.43-14.67,31.14-26.34,50.15-35
		c19-8.66,39.33-12.99,60.98-12.99c14.43,0,27.66,1.8,39.69,5.41c12.02,3.61,22.37,8.06,31.03,13.35
		c8.66,5.3,15.63,10.82,20.93,16.6c5.29,5.77,8.89,10.83,10.82,15.15l2.89-42.57h59.17v301.62h-62.05v-38.24
		c-2.41,3.86-6.26,8.42-11.54,13.71c-5.3,5.3-12.16,10.23-20.57,14.79c-8.42,4.58-18.4,8.55-29.94,11.91
		c-11.55,3.36-24.78,5.05-39.69,5.05c-23.09,0-44.38-4.22-63.86-12.63c-19.49-8.41-36.2-19.72-50.15-33.92
		c-13.96-14.18-24.9-30.67-32.83-49.43C77.05,475.46,73.09,455.74,73.09,435.05 M135.14,431.44c0,13.96,2.52,26.95,7.57,38.97
		c5.05,12.03,11.91,22.37,20.57,31.03c8.66,8.66,19,15.51,31.03,20.57c12.02,5.05,25.26,7.58,39.69,7.58
		c14.43,0,27.78-2.52,40.05-7.58c12.27-5.05,22.84-12.02,31.75-20.93c8.9-8.9,15.75-19.23,20.57-31.03
		c4.8-11.78,7.22-24.65,7.22-38.61c0-13.95-2.41-26.81-7.22-38.6c-4.81-11.78-11.67-22.01-20.57-30.67
		c-8.9-8.66-19.48-15.51-31.75-20.56c-12.27-5.05-25.62-7.58-40.05-7.58c-14.43,0-27.67,2.52-39.69,7.58
		c-12.03,5.05-22.37,11.91-31.03,20.56c-8.66,8.66-15.51,18.89-20.57,30.67C137.67,404.64,135.14,417.5,135.14,431.44"/>
	<path style="clip-path:url(#SVGID_00000063614841103617130780000015724541109575303082_);fill:#32A02D;" d="M650.35,308.05
		l-32.47,43.3c-0.48-0.47-2.16-1.68-5.05-3.61c-2.89-1.92-6.62-3.84-11.18-5.77c-4.58-1.92-9.87-3.72-15.88-5.41
		c-6.02-1.68-12.15-2.53-18.4-2.53c-8.19,0-16.23,1.93-24.17,5.77c-7.94,3.86-11.91,11.07-11.91,21.65c0,9.14,3.25,16.59,9.74,22.37
		c6.5,5.77,14.55,10.95,24.17,15.52c9.62,4.58,20.08,9.27,31.39,14.07c11.29,4.82,21.76,10.71,31.39,17.68
		c9.62,6.98,17.68,15.64,24.17,25.98c6.49,10.35,9.74,23.45,9.74,39.33c0,26.95-9.27,49.19-27.78,66.75
		c-18.52,17.56-43.9,26.34-76.13,26.34c-18.76,0-37.16-3.25-55.2-9.74c-18.04-6.49-32.6-15.99-43.66-28.5
		c3.36-3.36,7.09-7.69,11.19-12.99c4.08-5.29,8.17-10.34,12.26-15.15c4.08-4.8,7.46-8.77,10.1-11.91c2.64-3.12,4.2-4.69,4.69-4.69
		c0,0.49,1.8,1.93,5.41,4.33c3.61,2.41,8.3,4.94,14.07,7.57c5.77,2.65,12.27,5.05,19.48,7.22c7.21,2.16,14.43,3.25,21.65,3.25
		c11.55,0,21.4-2.89,29.59-8.66c8.17-5.77,12.26-13.46,12.26-23.09c0-8.66-3.24-15.51-9.74-20.57c-6.49-5.05-14.56-9.74-24.17-14.07
		c-9.63-4.33-20.21-8.77-31.75-13.35c-11.54-4.57-22.13-10.46-31.75-17.68c-9.63-7.21-17.68-16.23-24.17-27.06
		c-6.5-10.82-9.74-24.89-9.74-42.21c0-16.35,3-30.06,9.02-41.13c6.01-11.06,13.71-20.08,23.09-27.06
		c9.38-6.97,19.85-12.02,31.39-15.15c11.54-3.12,22.61-4.69,33.19-4.69c13.95,0,28.86,2.89,44.74,8.66
		C625.81,288.57,639.27,296.99,650.35,308.05"/>
	<path style="clip-path:url(#SVGID_00000063614841103617130780000015724541109575303082_);fill:#32A02D;" d="M1096.28,435.05
		c0-22.12,4.2-42.94,12.62-62.42c8.41-19.48,19.85-36.55,34.28-51.23c14.43-14.67,31.14-26.34,50.15-35
		c19-8.66,39.33-12.99,60.97-12.99c14.43,0,27.66,1.8,39.69,5.41c12.02,3.61,22.37,8.06,31.03,13.35
		c8.66,5.3,15.63,10.82,20.93,16.6c5.28,5.77,8.89,10.83,10.82,15.15l2.89-42.57h59.17v301.62h-62.05v-38.24
		c-2.41,3.86-6.26,8.42-11.54,13.71c-5.3,5.3-12.16,10.23-20.56,14.79c-8.42,4.58-18.4,8.55-29.94,11.91
		c-11.55,3.36-24.78,5.05-39.69,5.05c-23.09,0-44.38-4.22-63.86-12.63c-19.48-8.41-36.2-19.72-50.15-33.92
		c-13.96-14.18-24.89-30.67-32.83-49.43C1100.25,475.46,1096.28,455.74,1096.28,435.05 M1158.33,431.44
		c0,13.96,2.52,26.95,7.57,38.97c5.05,12.03,11.91,22.37,20.57,31.03c8.66,8.66,19,15.51,31.03,20.57
		c12.02,5.05,25.26,7.58,39.69,7.58s27.78-2.52,40.05-7.58c12.27-5.05,22.84-12.02,31.75-20.93c8.9-8.9,15.75-19.23,20.56-31.03
		c4.8-11.78,7.22-24.65,7.22-38.61c0-13.95-2.41-26.81-7.22-38.6c-4.81-11.78-11.67-22.01-20.56-30.67
		c-8.91-8.66-19.48-15.51-31.75-20.56c-12.27-5.05-25.62-7.58-40.05-7.58s-27.67,2.52-39.69,7.58
		c-12.03,5.05-22.37,11.91-31.03,20.56c-8.66,8.66-15.51,18.89-20.57,30.67C1160.86,404.64,1158.33,417.5,1158.33,431.44"/>
	<path style="clip-path:url(#SVGID_00000063614841103617130780000015724541109575303082_);fill:#32A02D;" d="M1671.37,352.79
		c-13.47,0-26.46,1.8-38.96,5.41c-12.52,3.61-23.7,9.02-33.55,16.23c-9.86,7.22-17.68,16.24-23.45,27.06
		c-5.77,10.83-8.66,23.22-8.66,37.16v144.32h-61.33V281.36h54.12c0.96,14.92,1.8,28.5,2.53,40.77c0.72,12.27,1.56,24.42,2.53,36.44
		c6.25-12.99,14.43-24.77,24.53-35.36c10.1-10.58,20.92-19.48,32.47-26.7c11.55-7.22,22.84-12.86,33.92-16.96
		c11.06-4.08,20.92-6.13,29.58-6.13L1671.37,352.79z"/>
	<path style="clip-path:url(#SVGID_00000063614841103617130780000015724541109575303082_);fill:#32A02D;" d="M1703.12,435.05
		c0-22.12,4.2-42.94,12.63-62.42c8.41-19.48,19.84-36.55,34.27-51.23c14.43-14.67,31.15-26.34,50.16-35
		c19-8.66,39.33-12.99,60.97-12.99c14.43,0,27.66,1.8,39.68,5.41c12.02,3.61,22.37,8.06,31.03,13.35
		c8.66,5.3,15.63,10.82,20.93,16.6c5.28,5.77,8.9,10.83,10.82,15.15l2.88-42.57h59.17v301.62h-62.06v-38.24
		c-2.42,3.86-6.26,8.42-11.55,13.71c-5.3,5.3-12.16,10.23-20.56,14.79c-8.42,4.58-18.4,8.55-29.95,11.91
		c-11.55,3.36-24.78,5.05-39.69,5.05c-23.09,0-44.38-4.22-63.86-12.63c-19.48-8.41-36.2-19.72-50.15-33.92
		c-13.96-14.18-24.9-30.67-32.83-49.43C1707.09,475.46,1703.12,455.74,1703.12,435.05 M1765.18,431.44
		c0,13.96,2.52,26.95,7.58,38.97c5.05,12.03,11.91,22.37,20.56,31.03c8.66,8.66,19,15.51,31.03,20.57
		c12.02,5.05,25.26,7.58,39.69,7.58c14.43,0,27.78-2.52,40.04-7.58c12.27-5.05,22.84-12.02,31.75-20.93
		c8.9-8.9,15.75-19.23,20.56-31.03c4.8-11.78,7.22-24.65,7.22-38.61c0-13.95-2.42-26.81-7.22-38.6
		c-4.82-11.78-11.67-22.01-20.56-30.67c-8.91-8.66-19.49-15.51-31.75-20.56c-12.27-5.05-25.62-7.58-40.04-7.58
		c-14.43,0-27.67,2.52-39.69,7.58c-12.03,5.05-22.37,11.91-31.03,20.56c-8.66,8.66-15.51,18.89-20.56,30.67
		C1767.7,404.64,1765.18,417.5,1765.18,431.44"/>
	<path style="clip-path:url(#SVGID_00000063614841103617130780000015724541109575303082_);fill:#32A02D;" d="M2092.05,432.89
		c0-22.6,4.08-43.66,12.27-63.14c8.17-19.48,19.24-36.32,33.19-50.51c13.95-14.18,30.31-25.37,49.06-33.55
		c18.76-8.17,38.72-12.27,59.89-12.27c16.35,0,30.91,2.16,43.66,6.5c12.74,4.33,23.45,9.38,32.11,15.15
		c8.66,5.77,15.51,11.43,20.56,16.96c5.05,5.54,8.3,9.5,9.74,11.91c0-6.73,0.47-13.82,1.44-21.29c0.96-7.45,1.44-14.54,1.44-21.29
		h59.18v287.91c0,50.03-14.68,88.99-44.02,116.9c-29.35,27.89-69.04,41.85-119.06,41.85c-17.32,0-32.83-1.8-46.54-5.41
		c-13.71-3.61-26.23-8.3-37.52-14.07c-11.31-5.77-21.65-12.51-31.03-20.2c-9.38-7.7-18.64-15.64-27.78-23.81l39.69-41.85
		c14.9,13.95,30.18,25.01,45.82,33.19c15.63,8.17,34.27,12.27,55.92,12.27c32.22,0,57.24-7.7,75.04-23.09
		c17.79-15.4,26.94-36.8,27.42-64.22v-20.93c0-3.85,0.47-8.05,1.44-12.63c0.96-4.57,1.44-8.05,1.44-10.46
		c-4.33,5.77-9.74,11.91-16.23,18.4c-6.49,6.5-14.08,12.27-22.73,17.32c-8.66,5.05-18.76,9.27-30.31,12.63
		c-11.54,3.36-24.53,5.05-38.97,5.05c-22.61,0-43.29-4.09-62.05-12.27c-18.76-8.17-35.12-19.36-49.07-33.55
		c-13.96-14.19-24.78-30.78-32.47-49.79C2095.89,475.59,2092.05,455.02,2092.05,432.89 M2154.11,431.44
		c0,13.96,2.52,26.95,7.57,38.97c5.05,12.03,11.91,22.37,20.56,31.03c8.66,8.66,19,15.51,31.03,20.57
		c12.02,5.05,25.26,7.58,39.68,7.58c14.43,0,27.78-2.52,40.05-7.58c12.27-5.05,22.84-12.02,31.75-20.93
		c8.9-8.9,15.75-19.23,20.57-31.03c4.8-11.78,7.22-24.65,7.22-38.61c0-13.95-2.41-26.81-7.22-38.6
		c-4.82-11.78-11.67-22.01-20.57-30.67c-8.91-8.66-19.48-15.51-31.75-20.56c-12.27-5.05-25.61-7.58-40.05-7.58
		c-14.43,0-27.67,2.52-39.68,7.58c-12.03,5.05-22.37,11.91-31.03,20.56c-8.66,8.66-15.51,18.89-20.56,30.67
		C2156.63,404.64,2154.11,417.5,2154.11,431.44"/>
	<path style="clip-path:url(#SVGID_00000063614841103617130780000015724541109575303082_);fill:#32A02D;" d="M2781.87,589.47h-51.95
		l-7.22-83.7c-11.07,24.53-26.58,44.74-46.54,60.61c-19.96,15.87-45.34,23.81-76.13,23.81c-30.79,0-55.2-8.3-73.24-24.9
		c-18.04-16.6-27.55-38.36-28.5-65.3V281.36h61.33v191.22c0.96,14.92,6.37,27.67,16.24,38.24c9.85,10.59,25.13,16.59,45.82,18.04
		c14.43,0,27.66-2.53,39.68-7.58c12.02-5.05,22.37-11.91,31.03-20.57c8.66-8.66,15.39-19,20.21-31.03
		c4.8-12.02,7.21-25.26,7.21-39.69V281.36h62.06V589.47z"/>
	<path style="clip-path:url(#SVGID_00000063614841103617130780000015724541109575303082_);fill:#32A02D;" d="M3036.58,308.05
		l-32.47,43.3c-0.48-0.47-2.16-1.68-5.05-3.61c-2.88-1.92-6.62-3.84-11.19-5.77c-4.57-1.92-9.87-3.72-15.87-5.41
		c-6.02-1.68-12.16-2.53-18.4-2.53c-8.19,0-16.24,1.93-24.18,5.77c-7.94,3.86-11.9,11.07-11.9,21.65c0,9.14,3.25,16.59,9.74,22.37
		c6.49,5.77,14.54,10.95,24.17,15.52c9.62,4.58,20.08,9.27,31.39,14.07c11.3,4.82,21.76,10.71,31.39,17.68
		c9.61,6.98,17.67,15.64,24.17,25.98c6.5,10.35,9.74,23.45,9.74,39.33c0,26.95-9.27,49.19-27.78,66.75
		c-18.53,17.56-43.9,26.34-76.13,26.34c-18.76,0-37.16-3.25-55.2-9.74c-18.04-6.49-32.6-15.99-43.65-28.5
		c3.36-3.36,7.09-7.69,11.18-12.99c4.08-5.29,8.17-10.34,12.27-15.15c4.08-4.8,7.45-8.77,10.11-11.91c2.64-3.12,4.2-4.69,4.69-4.69
		c0,0.49,1.8,1.93,5.42,4.33c3.61,2.41,8.3,4.94,14.07,7.57c5.77,2.65,12.27,5.05,19.48,7.22c7.22,2.16,14.43,3.25,21.65,3.25
		c11.54,0,21.4-2.89,29.58-8.66c8.17-5.77,12.27-13.46,12.27-23.09c0-8.66-3.25-15.51-9.74-20.57c-6.5-5.05-14.55-9.74-24.17-14.07
		c-9.63-4.33-20.21-8.77-31.75-13.35c-11.54-4.57-22.13-10.46-31.75-17.68c-9.62-7.21-17.67-16.23-24.17-27.06
		c-6.49-10.82-9.74-24.89-9.74-42.21c0-16.35,3-30.06,9.02-41.13c6.01-11.06,13.71-20.08,23.09-27.06
		c9.38-6.97,19.84-12.02,31.39-15.15c11.54-3.12,22.6-4.69,33.19-4.69c13.95,0,28.86,2.89,44.74,8.66
		C3012.05,288.57,3025.51,296.99,3036.58,308.05"/>
	<path style="clip-path:url(#SVGID_00000063614841103617130780000015724541109575303082_);fill:#32A02D;" d="M749.08,435.65
		c-12.74-18.14-23.14-38.15-31.12-58.82c-5.78,20.16-17.97,60.24-2.65,79.5C729.28,473.9,762.96,455.41,749.08,435.65"/>
	<path style="clip-path:url(#SVGID_00000063614841103617130780000015724541109575303082_);fill:#32A02D;" d="M789.63,286.84
		c-2.96-22.45-17.21-39.06-19.64-61.08c-10.73,18.02-28.86,50.42-19.63,73.23C761.1,325.58,793.39,315.36,789.63,286.84"/>
	<path style="clip-path:url(#SVGID_00000063614841103617130780000015724541109575303082_);fill:#32A02D;" d="M1038.92,366.5
		c-7.46-19.72-18.04-36.44-31.75-50.15c-13.71-13.71-30.07-24.29-49.07-31.75c-19.01-7.45-40.05-11.18-63.14-11.18
		c-13.47,0-25.74,1.69-36.8,5.05c-2.94,0.89-5.78,1.85-8.57,2.87c-1.23,5.71-2.86,11.67-5.15,17.94c-0.02,0.05-0.04,0.09-0.05,0.14
		c-0.44,1.19-0.9,2.37-1.39,3.54c-0.17,0.41-0.36,0.82-0.54,1.23c-0.35,0.8-0.69,1.6-1.07,2.39c-0.22,0.47-0.46,0.94-0.69,1.4
		c-0.35,0.71-0.7,1.42-1.07,2.12c-0.26,0.49-0.52,0.96-0.79,1.44c-0.36,0.66-0.73,1.32-1.11,1.96c-0.28,0.48-0.57,0.95-0.86,1.42
		c-0.38,0.62-0.76,1.23-1.16,1.84c-0.3,0.46-0.61,0.92-0.92,1.37c-0.4,0.58-0.81,1.16-1.22,1.72c-0.32,0.44-0.64,0.87-0.96,1.29
		c-0.42,0.55-0.85,1.08-1.28,1.61c-0.33,0.4-0.66,0.8-0.99,1.19c-0.45,0.52-0.91,1.01-1.37,1.5c-0.33,0.35-0.66,0.71-0.99,1.05
		c-0.49,0.49-0.98,0.95-1.48,1.41c-0.32,0.29-0.63,0.6-0.95,0.88c-0.57,0.5-1.14,0.94-1.72,1.39c-0.25,0.2-0.51,0.42-0.76,0.6
		c-0.84,0.61-1.68,1.17-2.53,1.67c-0.14,0.08-0.28,0.14-0.42,0.22c-0.71,0.4-1.43,0.78-2.15,1.1c-0.3,0.13-0.6,0.23-0.9,0.34
		c-0.43,0.17-0.86,0.36-1.29,0.49c-0.78,8-1.97,15.41-3.66,21.41c-1.46,5.21-2.72,11.02-3.8,17.33c2.88-3.95,5.96-7.72,9.41-11.17
		c8.66-8.66,19.12-15.51,31.39-20.56c12.27-5.05,25.62-7.58,40.05-7.58c14.43,0,27.42,2.52,38.96,7.58
		c11.54,5.05,21.4,11.91,29.59,20.56c8.17,8.66,14.43,18.89,18.76,30.67c4.33,11.79,6.5,24.66,6.5,38.6
		c0,13.96-2.17,26.83-6.5,38.61c-4.33,11.79-10.59,22.13-18.76,31.03c-8.19,8.91-18.04,15.88-29.59,20.93
		c-11.54,5.05-24.53,7.58-38.96,7.58c-14.43,0-27.78-2.52-40.05-7.58c-12.27-5.05-22.73-11.91-31.39-20.56
		c-5.64-5.64-10.43-12.06-14.54-19.13c0.58,26.49,1.99,53.93,3.78,80.21c6.08,4.64,12.99,8.95,20.86,12.88
		c9.13,4.58,19.12,8.17,29.95,10.82c10.83,2.64,22.25,3.97,34.28,3.97c23.09,0,44.38-3.97,63.86-11.91
		c19.48-7.94,36.19-18.88,50.15-32.83c13.95-13.95,24.77-30.54,32.47-49.79c7.69-19.23,11.54-40.16,11.54-62.78
		C1050.1,408.36,1046.37,386.23,1038.92,366.5"/>
	<path style="clip-path:url(#SVGID_00000063614841103617130780000015724541109575303082_);fill:#32A02D;" d="M795.34,569.01
		c-2.79-39.84-4.78-79.83-4.31-119.79c0.24-20.18,0.95-40.47,3.4-60.52c1.91-15.61,12.34-43.22,5.09-53.58
		c-17.48-24.97-42.29,9.47-56.56-29.34c-4.98,25.43-15.49,59.1-6.99,83.49c6.13,17.58,24.34,33.58,27.62,51.58
		c3.66,20.07-14.21,36.31-33.79,33.97c1.93,48.61,4.64,97.2,7.4,145.77c1.19,20.98,2.42,41.96,3.68,62.94
		c0.45,7.51-1.63,21.49,1.72,28.39c6.8,14,60.25,16.32,66.77,0.83c3.61-8.59-3.88-32.69-4.88-41.93
		C800.83,636.95,797.72,603,795.34,569.01"/>
	<path style="clip-path:url(#SVGID_00000063614841103617130780000015724541109575303082_);fill:#32A02D;" d="M825.89,171.67
		c0.41,3.6-3.28,32.41-1.96,32.62c9.23-11.15,25.39-17.23,33.29-29.3c6.57-10.04,5.48-26.09,8.68-37.67
		C849.19,143.02,823.73,152.91,825.89,171.67"/>
	<path style="clip-path:url(#SVGID_00000063614841103617130780000015724541109575303082_);fill:#32A02D;" d="M813.41,158.48
		c-0.3-1.74-0.6-3.48-0.9-5.21c-12.54,9.8-32.29,24.27-37.77,39.81c-4.05,11.48,2.59,27.26,6.54,39.27
		c3.87-0.81,22.2-25.46,23.77-27.52C814.92,191.32,813.95,161.48,813.41,158.48"/>
	<path style="clip-path:url(#SVGID_00000063614841103617130780000015724541109575303082_);fill:#32A02D;" d="M827.05,215.68
		c2.26,7.38,4.24,14.88,5.45,22.51c13.03-13.45,20.97-23.64,23.82-42.75C848.31,200.61,831.35,207,827.05,215.68"/>
	<path style="clip-path:url(#SVGID_00000063614841103617130780000015724541109575303082_);fill:#32A02D;" d="M815.92,214.89
		c-0.4-1.25-0.81-2.51-1.21-3.76c-7.61,7.69-21.51,19.05-24.83,27.52c-4.98,12.73,2.29,21.56,5.76,36.12
		c6.9-7.76,20.64-15.71,25.1-24.83C825.45,240.31,819.26,225.37,815.92,214.89"/>
	<path style="clip-path:url(#SVGID_00000063614841103617130780000015724541109575303082_);fill:#32A02D;" d="M843.88,238.68
		c-3.35,3.58-9.59,8.88-19.28,21.79c-9.69,12.92-25.02,26.64-28.25,38.21c-3.23,11.57,2.04,25.14,20.72,20.72
		C837.52,314.55,844.87,262.78,843.88,238.68"/>
	<path style="clip-path:url(#SVGID_00000063614841103617130780000015724541109575303082_);fill:#32A02D;" d="M754.42,204.01
		c-15.51,19.2-38.32,61.4-15.38,84.85c-2.42-47.5,27.8-60.43,20.82-91.57C758.05,199.53,756.23,201.77,754.42,204.01"/>
</g>
</svg>
