<?xml version="1.0" encoding="UTF-8"?>
<svg xmlns="http://www.w3.org/2000/svg" viewBox="0 0 214.88 312.94">
  <defs>
    <style>
      .cls-1 {
        mix-blend-mode: exclusion;
      }

      .cls-2 {
        isolation: isolate;
      }

      .cls-3 {
        fill: #1d76fc;
      }

      .cls-3, .cls-4, .cls-5 {
        stroke-width: 0px;
      }

      .cls-4 {
        fill: #c75341;
      }

      .cls-5 {
        fill: #e7a5ba;
      }
    </style>
  </defs>
  <g class="cls-2">
    <g id="Layer_2" data-name="Layer 2">
      <g id="Layer_1-2" data-name="Layer 1">
        <g>
          <g class="cls-1">
            <path class="cls-3" d="m.56,99.99h27.17v-14.47C27.73,33.19,59.92,0,124.28,0c14.21,0,25.91,1.7,30.09,2.55v72.34c-3.76-1.28-10.87-2.98-21.32-2.98-16.72,0-27.59,8.08-27.59,24.25v3.83h42.63v66.38h-38.45v146.38H24.39v-146.38H.56v-66.38Z"/>
          </g>
          <g class="cls-1">
            <path class="cls-5" d="m168.33,242.14c21.05,0,43.31-12.47,46.55-15.69v72.81c-4.05,2.01-26.72,13.68-60.72,13.68-66.79,0-109.71-45.45-109.71-106.6s42.91-106.6,109.71-106.6c34,0,55.46,11.26,59.51,13.27v73.21c-8.5-7.64-29.15-15.69-45.34-15.69-23.48,0-40.89,12.87-40.89,35.8s16.19,35.8,40.89,35.8Z"/>
          </g>
          <g class="cls-1">
            <rect class="cls-4" y="99.75" width="149" height="65"/>
          </g>
        </g>
      </g>
    </g>
  </g>
</svg>