<?xml version="1.0" encoding="utf-8"?>
<!-- Generator: Adobe Illustrator 27.1.1, SVG Export Plug-In . SVG Version: 6.00 Build 0)  -->
<svg version="1.1" id="Layer_1" xmlns="http://www.w3.org/2000/svg" xmlns:xlink="http://www.w3.org/1999/xlink" x="0px" y="0px"
	 viewBox="0 0 233.9 689" style="enable-background:new 0 0 233.9 689;" xml:space="preserve">
<style type="text/css">
	.st0{fill:#32A02D;}
</style>
<path class="st0" d="M150,351.5c14.7-21.1,26.8-43.9,35.9-68c6.7,23.3,20.7,69.5,3.1,91.8C172.9,395.6,134,374.2,150,351.5
	 M95.9,505.6c-2.8,39.2-6.3,78.4-10.6,117.6c-1.2,10.7-9.8,38.4-5.6,48.4c7.7,17.9,69.1,15.4,77.1-1c3.8-7.9,1.5-24.1,2-32.8
	c1.5-24.2,2.9-48.5,4.3-72.7c3.2-56.1,6.3-112.2,8.5-168.3c-22.6,2.7-43.2-16-39-39.2c3.8-20.8,24.8-39.3,31.9-59.6
	c9.8-28.1-2.3-67.1-8.1-96.4c-16.5,44.8-45.1,5-65.3,33.9c-8.4,11.9,3.8,43.9,5.9,61.9c2.6,23.2,3.8,46.5,3.8,69.9
	C101.4,413.4,99.1,459.5,95.9,505.6 M100.1,179.8c-4.3,33,33,44.7,45.4,14.1c10.6-26.3-10.3-63.8-22.7-84.5
	C119.9,134.8,103.5,154,100.1,179.8 M58.1,46.7C60.7,25,31.2,13.6,12,7c3.8,13.4,2.5,31.9,10,43.5c9.2,14.1,27.8,21,38.4,33.8
	c1.5-0.3-2.8-33.5-2.3-37.7 M72.6,31.3c-0.6,3.5-1.7,37.9,9.6,53.5c1.8,2.4,23,30.7,27.5,31.8c4.6-13.9,12.3-32.1,7.7-45.4
	C111,53.3,88.2,36.7,73.7,25.2l-1,6 M57,97.2C51.9,87.6,32.3,80,23.1,74.1c3.3,22.1,12.4,33.8,27.5,49.4c1.5-8.8,3.6-17.5,6.3-26
	 M69.6,96.6c-3.8,12.1-11,29.3-5.5,40.4s21,19.7,29,28.7c4-16.8,12.4-26.9,6.6-41.7c-3.8-9.8-19.9-23-28.6-31.8L69.6,96.6
	 M68.3,217.2c21.5,5.1,27.7-10.6,23.9-23.9c-3.7-13.4-21.4-29.2-32.6-44.1c-6.7-9-14.2-17.4-22.2-25.2
	C36.2,151.9,44.6,211.7,68.3,217.2 M140.7,84l-6.3-7.7c-8.1,35.9,26.9,50.9,24,105.7C185,155,158.5,106.2,140.7,84 M215.7,423h0.7
	l0,0H215.7 M220.2,423.3L220.2,423.3 M216.4,423h0.4H216.4"/>
</svg>
