<svg id="Layer_1" data-name="Layer 1" xmlns="http://www.w3.org/2000/svg" viewBox="0 0 54.22 176.27">
  <defs>
    <style>
      .cls-1 {
        fill: #32a02d;
      }
    </style>
  </defs>
  <path class="cls-1" d="M35.93,89.7A82.23,82.23,0,0,0,45.29,72c1.74,6.06,5.4,18.11.8,23.9-4.2,5.28-14.33-.28-10.16-6.22M21.84,129.84q-1.08,15.33-2.75,30.61c-.31,2.78-2.56,10-1.47,12.61,2,4.66,18,4,20.07-.25,1-2.07.39-6.27.52-8.53q.57-9.47,1.11-18.93c.83-14.6,1.64-29.21,2.22-43.83-5.89.71-11.26-4.17-10.16-10.21,1-5.41,6.47-10.23,8.31-15.51,2.56-7.33-.61-17.46-2.1-25.1-4.29,11.67-11.75,1.31-17,8.82-2.18,3.11,1,11.42,1.53,16.11a165.1,165.1,0,0,1,1,18.19c.15,12-.45,24-1.29,36M22.93,45c-1.13,8.58,8.58,11.65,11.81,3.66,2.77-6.86-2.68-16.6-5.9-22-.73,6.62-5,11.62-5.91,18.36M12,10.33C12.68,4.69,5,1.71,0,0,1,3.48.64,8.31,2.61,11.33,5,15,9.84,16.79,12.62,20.14c.4-.07-.72-8.73-.59-9.81m3.75-4c-.16.91-.45,9.87,2.51,13.94.48.62,6,8,7.15,8.27,1.19-3.61,3.19-8.35,2-11.81-1.65-4.67-7.59-9-11.36-12l-.27,1.56m-4.1,17.2C10.39,21,5.29,19,2.88,17.47c.86,5.75,3.24,8.81,7.16,12.86a50.59,50.59,0,0,1,1.64-6.77M15,23.33c-1,3.14-2.86,7.64-1.44,10.53s5.47,5.13,7.54,7.47c1.05-4.38,3.23-7,1.73-10.86-1-2.55-5.17-6-7.46-8.28L15,23.32m-.35,31.42c5.61,1.33,7.2-2.75,6.23-6.23s-5.58-7.6-8.5-11.48a54.81,54.81,0,0,0-5.79-6.56c-.3,7.25,1.91,22.82,8.06,24.27M33.52,20.05l-1.64-2c-2.1,9.36,7,13.25,6.26,27.53,6.9-7.05,0-19.74-4.62-25.51m19.53,88.24.19,0h0l-.19,0m1.17.09h0m-1-.07h.11l-.11,0"/>
</svg>
