<?xml version="1.0" encoding="utf-8"?>
<!-- Generator: Adobe Illustrator 27.1.1, SVG Export Plug-In . SVG Version: 6.00 Build 0)  -->
<svg version="1.1" id="Layer_1" xmlns="http://www.w3.org/2000/svg" xmlns:xlink="http://www.w3.org/1999/xlink" x="0px" y="0px"
	 viewBox="0 0 687 214" style="enable-background:new 0 0 687 214;" xml:space="preserve">
<style type="text/css">
	.st0{fill:#32A02D;}
</style>
<path class="st0" d="M338.3,156.4c21.2,14.6,44,26.6,68.2,35.6c-23.3,6.8-69.4,21-91.8,3.5C294.3,179.5,315.5,140.5,338.3,156.4
	 M183.9,103c-39.2-2.6-78.4-5.9-117.6-10.1c-10.7-1.2-38.4-9.6-48.4-5.4C0,95.3,2.7,156.7,19.2,164.7c7.9,3.8,24.1,1.4,32.8,1.9
	c24.2,1.4,48.5,2.7,72.7,4c56.1,2.9,112.2,5.8,168.3,7.7c-2.8-22.6,15.8-43.3,39-39.2c20.8,3.7,39.4,24.6,59.7,31.6
	c28.1,9.7,67.1-2.6,96.4-8.5C443.3,145.9,483,117.1,454,97c-11.9-8.3-43.9,4-61.9,6.2c-23.2,2.7-46.5,4-69.9,4.1
	C276.1,108.1,230,106,183.9,103 M509.7,105.8c-33-4.2-44.6,33.2-13.9,45.5c26.3,10.5,63.8-10.6,84.4-23.1
	C554.8,125.4,535.5,109,509.7,105.8 M642.6,63.2c21.7,2.5,33-27,39.5-46.3c-13.4,3.9-31.9,2.6-43.5,10.2
	C624.6,36.3,617.8,55,605,65.6c0.3,1.5,33.5-3,37.7-2.5 M658.1,77.6c-3.5-0.6-37.9-1.5-53.5,9.8c-2.4,1.8-30.6,23.1-31.7,27.6
	c13.9,4.5,32.2,12.2,45.4,7.5c17.9-6.5,34.4-29.4,45.8-43.9l-6-1 M592.1,62.3c9.6-5.1,17.1-24.8,22.9-34
	C593,31.7,581.3,40.8,565.8,56c8.8,1.5,17.5,3.5,26,6.2 M592.8,74.9c-12.1-3.7-29.3-10.9-40.4-5.3c-11.1,5.5-19.6,21.1-28.6,29.1
	c16.8,3.9,27,12.3,41.7,6.4c9.8-3.8,22.9-20,31.7-28.7L592.8,74.9 M472.2,74.1c-5,21.5,10.7,27.7,24,23.8
	c13.4-3.8,29.1-21.5,44-32.8c9-6.7,17.3-14.3,25.1-22.3C537.3,41.7,477.6,50.4,472.2,74.1 M605.7,145.9l7.7-6.3
	c-35.9-7.9-50.8,27.1-105.6,24.5C534.9,190.5,583.6,163.8,605.7,145.9 M267,222.4l0,0.7l0,0L267,222.4 M266.8,226.9L266.8,226.9
	 M267,223.1l0,0.4L267,223.1"/>
</svg>
