<svg id="Layer_1" data-name="Layer 1" xmlns="http://www.w3.org/2000/svg" viewBox="0 0 94.21 192.7">
  <defs>
    <style>
      .cls-1 {
        fill: #32a02d;
      }
    </style>
  </defs>
  <path class="cls-1" d="M14.55,129.26c4.91,6.13-7,11.87-11.93,6.42-5.41-6-1.1-18.41.94-24.66a82.2,82.2,0,0,0,11,18.24m14.89-12.7-.11-2.84a11.75,11.75,0,0,1-.81-.9c-5.73-7.2-2.13-19.73,0-27.22l2.14-7.47c.43-3.53,1.22-7.08,2-10.43.34-1.52.66-3,.94-4.39L34,61.2l0-.06-.2-.21c-6.73-6.8-16,3.14-21.42-8.63C10.4,60.19,6,94.91,7.85,109.77,9,119.24,19,125.67,20.31,131.26c1.41,6.22-5.5,11.26-13.07,10.53.44,8.71,3.65,34.35,4.95,36.49,1.94,3.2,13.63,4.43,20.68,2.94q-.57-9.69-1.13-19.38c-.87-15.35-1.7-30.36-2.3-45.28M16.93,50.15c3.33,8.25,13.35,5.07,12.18-3.77-.92-7-5.34-12.12-6.09-19C19.69,33,14.07,43.07,16.93,50.15M39.75,20.77c2.86-3.45,7.88-5.34,10.33-9.08,2-3.12,1.69-8.1,2.69-11.69C47.59,1.76,39.69,4.83,40.36,10.65c.13,1.12-1,10.06-.61,10.12m5.61,4.61,0,0a25.15,25.15,0,0,1,3.93-4.91c.19-.76.36-1.55.49-2.41-2.49,1.6-7.75,3.58-9.08,6.27.35,1.15.68,2.3,1,3.46l1-.64c.88-.56,2.18-1.38,2.66-1.74M19.88,18.6l-1.69,2.08c-4.81,6-11.89,19-4.77,26.32C12.67,32.27,22,28.26,19.88,18.6M71.69,53.36A38.73,38.73,0,0,1,68.4,64.51c1.72,1.52,4.42,2.15,7.52.89,6.68-2.72,9.08-13,10.27-18.91-4.29,3.41-9.75,4.21-14.5,6.87M78,30.77c.27.31,8.53-7.41,9.14-8.26,1.52-2.14,1.77-7.1.4-12.23-2.32,2.5-6.46,4.53-7.85,7.67C78,21.72,79.21,26.78,78,30.77M82.43,35c-.06.74-.85,9.53-.14,10.49,3.32-1.62,8-3.44,9.39-6.61,1.88-4.28.3-11.3-.57-15.88l-1.26.87c-.72.5-6.94,6.35-7.42,11.13m-10,7.31a59.32,59.32,0,0,1-.37,7.95c3.07-1.52,5.74-2.18,7-5.27,1-2.4.07-7.58-.11-10.71l-1,.51h0c-1.14.57-2.53,1.19-3.84,1.92a23.13,23.13,0,0,1-1.73,2.9Zm21.73.5c-7.85,4.87-3.59,13.74-13.69,22.87,9.93,0,13.24-13.28,13.58-20.38,0-.83.07-1.66.11-2.49M61.47,70.9a12.18,12.18,0,0,1-2.89.36c-.23,0-.44,0-.66,0,1.81,3.53.64,8.62-.5,13.56-.41,1.76-.8,3.43-1,4.67a170.53,170.53,0,0,0-1,18.39c-.06,5,0,10.3.2,16l2.46,8.57c1.75,6.11,4.69,16.33-.11,22.36-.13.17-.27.31-.4.46l.19,2.24c.55,6.33,1.16,12.62,1.82,18.7.06.56.25,1.48.47,2.51,3.19-.32,12.33-1.27,13.46-1.64,6-2,.25-49,.25-51.83-6.07,0-15.86-5.35-11.59-11.43A205.52,205.52,0,0,0,73.78,94.91C74.45,89.07,76,77.55,76.12,72c.14-4.86-4.83-3.56-9.29-5a9.38,9.38,0,0,1-5.36,3.82m5.45,43.85c-3.44,4.9,4.9,9.47,8.36,5.13,3.79-4.78.77-14.7-.66-19.7a67.93,67.93,0,0,1-7.7,14.57M38.4,103.39c-3.95-5.63-5.21-10.58-7.69-17-1.79,6.25-4.05,17.48-1.16,23.2,3.13,6.21,13.15-.08,8.85-6.21M51.81,57.23c-.92-7-5.34-12.12-6.09-18.95C42.39,43.87,36.77,53.92,39.63,61,43,69.25,53,66.07,51.81,57.23M63.06,21.5c.13,1.12-1,10.06-.61,10.12,2.86-3.45,7.88-5.34,10.33-9.09,2-3.11,1.7-8.09,2.69-11.68-5.18,1.77-13.08,4.83-12.41,10.65m-3.87-4.09c-.09-.54-.19-1.08-.28-1.61-3.89,3-10,7.52-11.72,12.34-1.25,3.57.81,8.46,2,12.19,1.2-.26,6.89-7.9,7.38-8.54,3.06-4.19,2.76-13.45,2.59-14.38m4.23,17.74a52.33,52.33,0,0,1,1.69,7c4-4.18,6.51-7.34,7.39-13.26-2.49,1.6-7.75,3.58-9.08,6.27M60,34.91c-.13-.39-.25-.78-.38-1.17-2.36,2.39-6.67,5.91-7.7,8.54-1.54,3.95.71,6.69,1.79,11.2,2.14-2.4,6.4-4.87,7.78-7.7,1.46-3-.46-7.62-1.49-10.87m8.67,7.38a55.9,55.9,0,0,0-6,6.76c-3,4-7.76,8.26-8.76,11.85s.63,7.8,6.42,6.43c6.35-1.51,8.63-17.56,8.32-25M40.89,31.53c-4.81,6-11.88,19-4.77,26.32-.75-14.73,8.62-18.74,6.46-28.4-.56.7-1.13,1.39-1.69,2.08M54,157.61c-6.66,2.58-16.13-4.15-11.12-11.28a114.05,114.05,0,0,0,9.25-15.83c-.37-7.61-.57-15.24-.48-22.86a173.08,173.08,0,0,1,1.06-18.77c.59-4.84,3.83-13.41,1.58-16.62-5.42-7.74-13.12,2.94-17.55-9.1-1.54,7.89-4.8,18.33-2.16,25.9,1.89,5.45,7.54,10.42,8.56,16,1.14,6.23-4.4,11.26-10.48,10.54.6,15.08,1.44,30.15,2.3,45.21q.56,9.76,1.14,19.53c.14,2.33-.51,6.66.53,8.8,2.11,4.35,18.69,5.07,20.71.26,1.12-2.67-1.2-10.14-1.51-13q-1-9.37-1.83-18.77m-6.4-10.31c-3.43,4.9,4.91,9.47,8.37,5.12,3.79-4.77.77-14.69-.66-19.69a68,68,0,0,1-7.71,14.57M39,29.67c-.43-2-1.18-4-1.7-5.61h0c-.13-.39-.25-.78-.38-1.17-2.36,2.39-6.67,5.91-7.7,8.54-1.55,4,.71,6.69,1.79,11.2.23-.26.5-.53.78-.79A44.82,44.82,0,0,1,38.5,30.17a3.59,3.59,0,0,1,.47-.5M33.9,20.94h0C37,16.75,36.65,7.49,36.49,6.56,36.39,6,36.3,5.49,36.21,5c-3.89,3-10,7.52-11.72,12.35-1.26,3.56.81,8.45,2,12.18,1.2-.25,6.89-7.9,7.38-8.54"/>
</svg>
