<?xml version="1.0" encoding="utf-8"?>
<!-- Generator: Adobe Illustrator 27.1.1, SVG Export Plug-In . SVG Version: 6.00 Build 0)  -->
<svg version="1.1" id="Layer_1" xmlns="http://www.w3.org/2000/svg" xmlns:xlink="http://www.w3.org/1999/xlink" x="0px" y="0px"
	 viewBox="0 0 216.1 406.4" style="enable-background:new 0 0 216.1 406.4;" xml:space="preserve">
<style type="text/css">
	.st0{fill:#32A02D;}
</style>
<path class="st0" d="M47.1,271.7c10,12.5-14.3,24.2-24.4,13.1c-11.1-12.3-2.2-37.6,1.9-50.4C30.5,247.8,38.1,260.3,47.1,271.7
	 M77.6,245.8l-0.2-5.8c-0.6-0.6-1.1-1.2-1.7-1.8c-11.7-14.7-4.4-40.3,0-55.6l4.4-15.3c0.9-7.2,2.5-14.5,4.1-21.3
	c0.7-3.1,1.3-6.1,1.9-9l0.8-4.3v-0.1l-0.4-0.4c-13.7-13.9-32.7,6.4-43.8-17.6c-4,16.1-13,87-9.3,117.4c2.3,19.3,22.8,32.5,25.5,43.9
	c2.9,12.7-11.2,23-26.7,21.5c0.9,17.8,7.5,70.2,10.1,74.5c4,6.5,27.8,9,42.2,6c-0.8-13.2-1.5-26.4-2.3-39.6
	C80.5,306.9,78.8,276.3,77.6,245.8 M52,110.1c6.8,16.9,27.3,10.4,24.9-7.7C75,88.1,66,77.7,64.4,63.6C57.6,75.1,46.1,95.7,52,110.1
	 M98.6,50.1c5.8-7,16.1-10.9,21.1-18.5c4.1-6.4,3.5-16.5,5.5-23.9c-10.6,3.6-26.7,9.9-25.3,21.8C100.1,31.7,97.8,50,98.6,50.1
	 M110.1,59.5L110.1,59.5c2.2-3.7,4.9-7,8-10c0.4-1.6,0.7-3.2,1-4.9c-5.1,3.3-15.8,7.3-18.5,12.8c0.7,2.3,1.4,4.7,2,7.1l2-1.3
	C106.4,62,109.1,60.3,110.1,59.5 M58,45.7l-3.5,4.2c-9.8,12.3-24.3,38.8-9.7,53.8C43.3,73.6,62.3,65.4,58,45.7 M163.8,116.7
	c-1.1,7.9-3.3,15.6-6.7,22.8c3.5,3.1,9,4.4,15.4,1.8c13.6-5.6,18.5-26.6,21-38.6C184.7,109.6,173.5,111.2,163.8,116.7 M176.7,70.5
	c0.6,0.6,17.4-15.1,18.7-16.9c3.1-4.4,3.6-14.5,0.8-25c-4.7,5.1-13.2,9.3-16,15.7C176.7,52.1,179.2,62.4,176.7,70.5 M185.8,79.2
	c-0.1,1.5-1.7,19.5-0.3,21.4c6.8-3.3,16.3-7,19.2-13.5c3.8-8.7,0.6-23.1-1.2-32.4l-2.6,1.8C199.5,57.5,186.8,69.4,185.8,79.2
	 M165.3,94.1c0.1,5.4-0.1,10.8-0.8,16.2c6.3-3.1,11.7-4.5,14.3-10.8c2-4.9,0.1-15.5-0.2-21.9l-2,1l0,0c-2.3,1.2-5.2,2.4-7.8,3.9
	c-1,2.1-2.2,4-3.5,5.9L165.3,94.1z M209.7,95.1c-16,9.9-7.3,28.1-28,46.7c20.3,0,27-27.1,27.7-41.6
	C209.5,98.5,209.7,96.8,209.7,95.1 M143,152.5c-1.9,0.5-3.9,0.7-5.9,0.7c-0.5,0-0.9,0-1.3,0c3.7,7.2,1.3,17.6-1,27.7
	c-0.8,3.6-1.6,7-2,9.5c-1.4,12.5-2,25-2,37.6c-0.1,10.2,0,21,0.4,32.7l5,17.5c3.6,12.5,9.6,33.4-0.2,45.7c-0.3,0.3-0.6,0.6-0.8,0.9
	l0.4,4.6c1.1,12.9,2.4,25.8,3.7,38.2c0.1,1.1,0.5,3,1,5.1c6.5-0.7,25.2-2.6,27.5-3.3c12.3-4.1,0.5-100.1,0.5-105.9
	c-12.4,0-32.4-10.9-23.7-23.3c8.6-12.4,16.5-25.3,23.7-38.6c1.4-11.9,4.5-35.5,4.8-46.8c0.3-9.9-9.9-7.3-19-10.2
	c-2.6,3.8-6.5,6.6-10.9,7.8 M154.1,241.9c-7,10,10,19.3,17.1,10.5c7.7-9.8,1.6-30-1.3-40.2C165.8,222.7,160.5,232.7,154.1,241.9
	 M95.8,218.9c-8.1-11.5-10.6-21.6-15.7-34.7c-3.7,12.8-8.3,35.7-2.4,47.4C84.2,244.2,104.6,231.4,95.8,218.9 M123.2,124.6
	c-1.9-14.3-10.9-24.8-12.4-38.7c-6.8,11.4-18.3,31.9-12.4,46.4C105.2,149.1,125.7,142.6,123.2,124.6 M146.2,51.6
	c0.3,2.3-2,20.5-1.2,20.7c5.8-7,16.1-10.9,21.1-18.6c4.1-6.4,3.5-16.5,5.5-23.9C161,33.5,144.8,39.7,146.2,51.6 M138.3,43.2
	c-0.2-1.1-0.4-2.2-0.6-3.3c-7.9,6.1-20.4,15.4-23.9,25.2c-2.6,7.3,1.7,17.3,4.1,24.9c2.5-0.5,14.1-16.1,15.1-17.4
	C139.2,64.1,138.6,45.1,138.3,43.2 M146.9,79.5c1.5,4.7,2.6,9.5,3.5,14.3c8.2-8.5,13.3-15,15.1-27.1C160.3,70,149.6,74,146.9,79.5
	 M140,79c-0.3-0.8-0.5-1.6-0.8-2.4c-4.8,4.9-13.6,12.1-15.7,17.4c-3.1,8.1,1.5,13.7,3.7,22.9c4.4-4.9,13.1-9.9,15.9-15.7
	C146,95.1,142.1,85.6,140,79 M157.7,94.1c-4.5,4.3-8.6,8.9-12.3,13.8c-6.1,8.2-15.9,16.9-17.9,24.2s1.3,15.9,13.1,13.1
	C153.6,142.1,158.3,109.3,157.7,94.1 M100.9,72.1c-9.8,12.3-24.3,38.8-9.7,53.8c-1.5-30.1,17.6-38.3,13.2-58
	C103.2,69.3,102.1,70.7,100.9,72.1 M127.7,329.6c-13.6,5.3-32.9-8.5-22.7-23c7.2-10.3,13.5-21.1,18.9-32.3
	c-0.8-15.5-1.2-31.1-1-46.7c0-12.8,0.7-25.6,2.2-38.3c1.2-9.9,7.8-27.4,3.2-33.9c-11.1-15.8-26.8,6-35.8-18.6
	c-3.1,16.1-9.8,37.4-4.4,52.9c3.9,11.1,15.4,21.3,17.5,32.7c2.3,12.7-9,23-21.4,21.5c1.2,30.8,2.9,61.6,4.7,92.3
	c0.8,13.3,1.5,26.6,2.3,39.9c0.3,4.8-1,13.6,1.1,18c4.3,8.9,38.2,10.4,42.3,0.5c2.3-5.5-2.5-20.7-3.1-26.6
	C130.1,355.2,128.8,342.5,127.7,329.6 M114.6,308.6c-7,10,10,19.3,17.1,10.5c7.7-9.7,1.6-30-1.3-40.2
	C126.4,289.4,121.1,299.3,114.6,308.6 M97.1,68.3c-0.9-4.1-2.4-8.2-3.5-11.5l0,0c-0.3-0.8-0.5-1.6-0.8-2.4
	C88,59.3,79.2,66.5,77.1,71.9c-3.2,8.2,1.5,13.7,3.7,22.9c0.5-0.5,1-1.1,1.6-1.6c3.3-8.6,8-16.6,13.7-23.8
	C96.3,68.9,96.6,68.6,97.1,68.3 M86.6,50.5L86.6,50.5c6.3-8.6,5.6-27.5,5.3-29.4c-0.2-1.1-0.4-2.2-0.6-3.2
	C83.4,24,70.9,33.3,67.4,43.1c-2.6,7.3,1.7,17.3,4.1,24.9c2.5-0.5,14.1-16.1,15.1-17.4"/>
</svg>
