<svg width="1494" height="844" viewBox="0 0 1494 844" fill="none" xmlns="http://www.w3.org/2000/svg">
<g opacity="0.6">
<mask id="mask0_439_2208" style="mask-type:alpha" maskUnits="userSpaceOnUse" x="0" y="0" width="1494" height="844">
<rect width="1494" height="843.763" rx="40" fill="#D5E5A5"/>
</mask>
<g mask="url(#mask0_439_2208)">
<rect x="-61.1201" y="-40.5496" width="1648.47" height="882.178" fill="#D5E5A5"/>
<g opacity="0.6">
<mask id="path-3-inside-1_439_2208" fill="white">
<path d="M866.803 795.02C827.191 735.902 780.476 681.831 727.615 633.867C794.793 640.524 929.163 651.798 968.62 719.607C1004.58 781.494 909.251 859.118 866.604 794.941M1210.63 1090.46C1309.49 1137.54 1407.37 1186.51 1504.39 1237.3C1530.83 1251.23 1593.8 1301.58 1624.08 1301.11C1678.35 1299.73 1734.96 1140.15 1700.84 1103.2C1684.19 1085.28 1639.98 1074.82 1618 1064.69C1556.71 1036.26 1495.37 1007.92 1434 979.675C1291.98 914.359 1149.79 849.201 1006.58 786.259C990.392 846.833 920.624 880.415 864.859 845.969C814.969 814.972 788.6 742.425 743.32 703.695C680.483 649.873 567.155 641.309 485.241 626.012C584.438 713.804 451.883 746.434 505.89 827.356C528.232 860.925 623.487 862.263 672.253 875.428C735.007 892.506 796.717 913.038 857.223 936.846C977.236 982.365 1094.29 1035.24 1210.39 1090.48M370.631 747.537C451.555 792.223 520.447 708.969 453.686 645.988C396.355 591.945 277.906 607.281 211.453 617.73C274.45 650.816 307.349 712.293 370.83 747.615M-17.5513 719.02C-70.9939 690.262 -130.974 753.95 -167.734 796.314C-129.154 800.129 -82.5087 822.575 -44.676 815.072C1.28361 805.992 38.2079 765.511 82.5229 751.351C83.4057 747.152 -7.19836 724.23 -17.4329 718.725M-42.4328 666.266C-34.0085 671.4 54.0136 709.332 106.205 696.225C114.27 693.943 209.509 668.68 216.737 658.453C185.51 632.64 146.236 594.455 107.104 592.582C54.1149 590.485 -12.43 631.813 -57.171 657.057L-42.7124 665.815M112.268 773.398C82.2762 776.6 42.2355 818.81 17.4935 836.466C78.1115 850.544 117.961 839.173 173.744 816.569C152.494 803.775 132.175 789.529 112.846 773.967M123.666 740.49C150.966 762.598 188.405 798.47 222.772 795.854C257.139 793.237 295.422 762.27 326.883 751.122C287.44 723.668 269.974 692.018 225.638 691.62C196.313 691.447 145.514 718.854 113.782 732.395L123.567 740.451M434.867 866.922C470.254 817.084 435.929 785.506 397.467 781.397C359.005 777.287 299.802 806.388 249.659 819.845C219.463 827.853 190.008 838.313 161.515 850.969C232.48 882.303 396.154 921.589 434.867 866.922ZM164.151 545.925L137.772 554.185C222.628 611.444 297.271 537.386 436.46 600.566C393.545 505.255 240.013 523.266 164.35 546.004"/>
</mask>
<path d="M1123.32 701.375L1124.07 699.511L1116.63 696.582L1115.88 698.446L1123.32 701.375ZM1124.19 699.785L1124.63 698.706L1117.18 695.777L1116.75 696.856L1124.19 699.785ZM727.615 633.867L728.455 625.927L704.291 623.533L722.192 639.775L727.615 633.867ZM968.62 719.607L975.57 715.585L975.568 715.581L968.62 719.607ZM1504.39 1237.3L1508.18 1230.25L1508.17 1230.24L1508.16 1230.24L1504.39 1237.3ZM1624.08 1301.11L1624.16 1309.09L1624.2 1309.08L1624.24 1309.08L1624.08 1301.11ZM1700.84 1103.2L1706.76 1097.78L1706.75 1097.78L1706.74 1097.77L1700.84 1103.2ZM1618 1064.69L1614.58 1071.93L1614.59 1071.93L1614.6 1071.94L1618 1064.69ZM1434 979.675L1437.4 972.431L1437.4 972.43L1434 979.675ZM1006.58 786.259L1009.86 778.958L1001.26 775.177L998.832 784.249L1006.58 786.259ZM864.859 845.969L860.583 852.743L860.591 852.749L860.6 852.754L864.859 845.969ZM743.32 703.695L738.067 709.754L738.071 709.757L743.32 703.695ZM485.241 626.012L486.763 618.17L458.266 612.848L479.89 631.986L485.241 626.012ZM505.89 827.356L512.586 822.926L512.581 822.917L505.89 827.356ZM672.253 875.428L674.41 867.732L674.402 867.729L674.395 867.727L672.253 875.428ZM857.223 936.846L854.237 944.268L854.283 944.286L854.329 944.304L857.223 936.846ZM453.686 645.988L459.223 640.184L459.221 640.182L453.686 645.988ZM211.453 617.73L210.243 609.849L186.374 613.602L207.677 624.79L211.453 617.73ZM-167.734 796.314L-173.794 791.12L-183.877 802.74L-168.572 804.254L-167.734 796.314ZM-44.676 815.072L-46.1962 807.246L-46.2022 807.247L-44.676 815.072ZM82.5229 751.351L84.9372 758.946L89.4122 757.517L90.3738 752.942L82.5229 751.351ZM106.205 696.225L108.127 703.961L108.243 703.932L108.359 703.899L106.205 696.225ZM216.737 658.453L223.29 663.017L227.551 656.989L221.884 652.305L216.737 658.453ZM107.104 592.582L107.534 584.613L107.501 584.611L107.468 584.61L107.104 592.582ZM-57.171 657.057L-61.0988 650.123L-72.997 656.836L-61.3707 663.878L-57.171 657.057ZM17.4935 836.466L12.842 829.992L-1.53408 840.25L15.6284 844.236L17.4935 836.466ZM173.744 816.569L176.734 823.956L191.562 817.948L177.925 809.737L173.744 816.569ZM326.883 751.122L329.537 758.636L344.227 753.431L331.506 744.576L326.883 751.122ZM225.638 691.62L225.755 683.642L225.743 683.642L225.731 683.642L225.638 691.62ZM113.782 732.395L110.655 725.066L98.5427 730.234L108.648 738.554L113.782 732.395ZM434.867 866.922L428.324 862.344L428.318 862.352L434.867 866.922ZM249.659 819.845L251.685 827.554L251.697 827.551L251.708 827.548L249.659 819.845ZM161.515 850.969L158.278 843.687L141.793 851.009L158.226 858.265L161.515 850.969ZM137.772 554.185L135.402 546.576L119.533 551.545L133.244 560.796L137.772 554.185ZM436.46 600.566L433.096 607.828L452.503 616.637L443.783 597.271L436.46 600.566ZM873.485 790.569C833.513 730.914 786.375 676.354 733.039 627.958L722.192 639.775C774.577 687.308 820.869 740.89 860.12 799.47L873.485 790.569ZM726.776 641.806C760.524 645.151 810.251 649.587 856.455 661.528C903.118 673.588 943.676 692.706 961.672 723.633L975.568 715.581C954.106 678.699 907.751 658.276 860.571 646.082C812.932 633.77 761.885 629.24 728.455 625.927L726.776 641.806ZM961.67 723.629C976.988 749.991 964.85 780.695 942.182 798.265C931.011 806.923 918.084 811.633 906.075 810.981C894.396 810.346 882.671 804.614 873.302 790.516L859.905 799.367C871.86 817.357 888.044 825.988 905.111 826.915C921.846 827.824 938.501 821.293 951.998 810.831C978.667 790.161 996.213 751.11 975.57 715.585L961.67 723.629ZM1207.13 1097.66C1305.9 1144.7 1403.69 1193.62 1500.63 1244.37L1508.16 1230.24C1411.05 1179.4 1313.08 1130.39 1214.13 1083.26L1207.13 1097.66ZM1500.61 1244.36C1506.8 1247.62 1515.35 1253.15 1525.53 1259.87C1535.55 1266.5 1546.98 1274.17 1558.5 1281.37C1570.02 1288.57 1581.89 1295.46 1592.92 1300.54C1603.71 1305.51 1614.7 1309.23 1624.16 1309.09L1624 1293.13C1618.32 1293.22 1610.08 1290.83 1599.73 1286.05C1589.61 1281.39 1578.4 1274.91 1567.09 1267.84C1555.79 1260.78 1544.62 1253.28 1534.46 1246.56C1524.44 1239.94 1515.2 1233.95 1508.18 1230.25L1500.61 1244.36ZM1624.24 1309.08C1641.59 1308.64 1657.32 1295.87 1670.07 1279.7C1683.13 1263.14 1694.59 1241.11 1703.12 1218.23C1711.66 1195.35 1717.45 1171.12 1718.87 1150.01C1719.58 1139.45 1719.22 1129.43 1717.42 1120.63C1715.64 1111.88 1712.34 1103.82 1706.76 1097.78L1694.92 1108.61C1697.87 1111.81 1700.26 1116.83 1701.7 1123.88C1703.13 1130.89 1703.51 1139.41 1702.87 1149.03C1701.57 1168.27 1696.22 1190.96 1688.09 1212.76C1679.95 1234.57 1669.21 1255 1657.47 1269.9C1645.4 1285.2 1633.71 1292.88 1623.92 1293.13L1624.24 1309.08ZM1706.74 1097.77C1697 1087.29 1680.09 1079.65 1664.35 1073.58C1656.29 1070.48 1648.03 1067.6 1640.63 1064.95C1633.11 1062.26 1626.54 1059.82 1621.41 1057.45L1614.6 1071.94C1620.45 1074.64 1627.65 1077.29 1635.12 1079.97C1642.71 1082.69 1650.66 1085.45 1658.48 1088.47C1674.51 1094.64 1688.02 1101.2 1694.93 1108.63L1706.74 1097.77ZM1621.43 1057.46C1560.12 1029.02 1498.78 1000.68 1437.4 972.431L1430.6 986.92C1491.97 1015.16 1553.29 1043.49 1614.58 1071.93L1621.43 1057.46ZM1437.4 972.43C1295.38 907.114 1153.13 841.93 1009.86 778.958L1003.31 793.56C1146.44 856.471 1288.58 921.605 1430.6 986.921L1437.4 972.43ZM998.832 784.249C983.855 840.28 919.746 870.456 869.118 839.184L860.6 852.754C921.503 890.373 996.929 853.386 1014.33 788.269L998.832 784.249ZM869.136 839.195C845.795 824.693 827.569 800.188 808.987 773.199C790.799 746.782 772.201 717.846 748.57 697.633L738.071 709.757C759.72 728.274 776.946 754.977 795.735 782.266C814.129 808.982 834.033 836.248 860.583 852.743L869.136 839.195ZM748.574 697.637C715.658 669.443 670.063 653.495 623.299 642.636C576.762 631.829 526.912 625.667 486.763 618.17L483.718 633.854C525.484 641.654 573.255 647.422 619.569 658.177C665.657 668.879 708.145 684.124 738.067 709.754L748.574 697.637ZM479.89 631.986C503.923 653.256 512.777 670.184 514.779 684.289C516.795 698.491 512.148 711.49 505.272 725.865C498.682 739.644 489.516 755.47 485.974 772.531C482.252 790.462 484.542 809.832 499.2 831.795L512.581 822.917C500.235 804.42 498.842 789.365 501.684 775.675C504.707 761.115 512.353 748.124 519.751 732.655C526.864 717.784 533.38 701.107 530.664 681.971C527.933 662.737 516.157 642.664 490.591 620.038L479.89 631.986ZM499.195 831.786C506.124 842.198 518.097 849.337 531.465 854.599C545.002 859.928 561.11 863.764 577.624 866.883C594.147 870.003 611.548 872.487 627.55 874.968C643.715 877.473 658.402 879.968 670.112 883.13L674.395 867.727C661.721 864.306 646.215 861.697 630.106 859.2C613.834 856.678 596.881 854.26 580.702 851.205C564.513 848.147 549.571 844.532 537.44 839.757C525.14 834.915 516.827 829.298 512.586 822.926L499.195 831.786ZM670.097 883.125C732.564 900.125 793.997 920.564 854.237 944.268L860.21 929.425C799.437 905.511 737.45 884.887 674.41 867.732L670.097 883.125ZM854.329 944.304C974.047 989.711 1090.88 1042.48 1206.9 1097.68L1213.88 1083.27C1097.7 1028 980.425 975.02 860.118 929.389L854.329 944.304ZM366.708 754.518C410.028 778.439 451.91 768.716 473.738 742.168C495.784 715.355 495.18 674.106 459.223 640.184L448.149 651.792C478.953 680.851 477.283 712.72 461.343 732.107C445.184 751.76 412.158 761.321 374.554 740.556L366.708 754.518ZM459.221 640.182C428.393 611.123 381.97 601.336 336.324 599.701C290.405 598.056 243.521 604.617 210.243 609.849L212.662 625.611C245.838 620.394 291.404 614.063 335.657 615.648C380.181 617.243 421.648 626.811 448.152 651.794L459.221 640.182ZM207.677 624.79C237.96 640.695 261.144 663.478 285.271 687.49C309.18 711.286 334.024 736.3 366.885 754.584L374.776 740.647C344.155 723.609 320.809 700.223 296.649 676.178C272.707 652.35 247.944 627.851 215.229 610.67L207.677 624.79ZM-13.7044 711.997C-44.3806 695.49 -76.1908 706.164 -103.358 724.389C-130.619 742.676 -155.423 769.948 -173.794 791.12L-161.675 801.508C-143.286 780.316 -119.72 754.562 -94.4397 737.603C-69.0661 720.582 -44.1647 713.792 -21.3983 726.042L-13.7044 711.997ZM-168.572 804.254C-150.028 806.088 -129.811 812.362 -107.868 817.689C-86.6201 822.848 -63.9647 827.024 -43.1499 822.896L-46.2022 807.247C-63.2201 810.623 -82.8036 807.328 -103.982 802.186C-124.465 797.212 -146.86 790.356 -166.897 788.374L-168.572 804.254ZM-43.1559 822.897C-18.5032 818.027 3.39385 804.809 23.8287 791.835C44.7232 778.569 64.011 765.633 84.9372 758.946L80.1086 743.756C56.7198 751.229 35.3879 765.613 15.2516 778.398C-5.34432 791.474 -24.8893 803.037 -46.1962 807.246L-43.1559 822.897ZM90.3738 752.942C91.1875 749.072 89.0599 746.394 88.4058 745.646C87.5522 744.671 86.615 744.018 86.0603 743.659C84.869 742.888 83.4414 742.213 82.1232 741.645C79.3772 740.462 75.5987 739.112 71.2889 737.684C62.6017 734.807 50.9059 731.338 39.0093 727.87C27.0431 724.382 14.8653 720.893 4.99151 717.918C0.058567 716.432 -4.22175 715.097 -7.55659 713.975C-11.1122 712.78 -13.001 712.017 -13.5873 711.702L-21.2785 725.749C-19.3061 726.81 -16.1248 727.968 -12.77 729.096C-9.19439 730.298 -4.72406 731.69 0.262565 733.192C10.2279 736.195 22.5649 739.73 34.4187 743.186C46.3421 746.661 57.7714 750.054 66.144 752.828C70.3641 754.225 73.5991 755.398 75.6791 756.294C76.183 756.511 76.5726 756.692 76.8617 756.837C77.1659 756.989 77.2757 757.06 77.2562 757.047C77.2417 757.038 77.1467 756.976 77.0024 756.86C76.8691 756.753 76.5961 756.523 76.2799 756.161C75.9175 755.747 73.9135 753.368 74.672 749.76L90.3738 752.942ZM-46.6506 673.076C-43.8964 674.755 -36.2273 678.307 -26.0046 682.368C-15.5503 686.522 -1.87489 691.425 13.211 695.753C42.931 704.279 79.7935 711.076 108.127 703.961L104.282 688.49C80.4248 694.481 47.1807 688.865 17.7358 680.418C3.23921 676.26 -9.93237 671.537 -19.9825 667.544C-30.2643 663.459 -36.7571 660.345 -38.2151 659.456L-46.6506 673.076ZM108.359 703.899C112.22 702.807 138.278 695.855 164.106 687.943C177.023 683.986 190.061 679.736 200.387 675.796C205.534 673.833 210.173 671.884 213.845 670.028C215.678 669.101 217.411 668.127 218.902 667.112C220.262 666.184 222.005 664.837 223.29 663.017L210.184 653.889C210.566 653.348 210.717 653.396 209.885 653.964C209.182 654.442 208.12 655.062 206.641 655.81C203.69 657.302 199.64 659.022 194.715 660.901C184.899 664.646 172.268 668.772 159.463 672.694C133.849 680.541 108.255 687.362 104.05 688.552L108.359 703.899ZM221.884 652.305C206.669 639.728 188.483 623.254 169.52 610.003C150.561 596.754 129.42 585.66 107.534 584.613L106.674 600.552C123.92 601.377 141.982 610.312 160.249 623.077C178.513 635.84 195.577 651.365 211.59 664.601L221.884 652.305ZM107.468 584.61C79.0123 583.484 47.6948 593.964 18.5502 607.324C-10.706 620.734 -38.9746 637.64 -61.0988 650.123L-53.2431 663.992C-30.6264 651.231 -3.25213 634.85 25.1968 621.81C53.7573 608.718 82.2069 599.584 106.741 600.555L107.468 584.61ZM-61.3707 663.878L-46.9122 672.636L-38.5127 658.994L-52.9712 650.236L-61.3707 663.878ZM111.456 765.465C102.407 766.431 93.1767 770.244 84.379 775.174C75.5072 780.145 66.5503 786.554 57.9809 793.246C49.4076 799.941 41.0088 807.09 33.3577 813.537C25.6102 820.066 18.7173 825.799 12.842 829.992L22.1449 842.94C28.6407 838.305 36.031 832.141 43.6872 825.689C51.4396 819.156 59.5646 812.242 67.8432 805.777C76.1257 799.309 84.3488 793.462 92.193 789.067C100.111 784.63 107.133 781.966 113.08 781.332L111.456 765.465ZM15.6284 844.236C78.624 858.866 120.343 846.807 176.734 823.956L170.753 809.182C115.579 831.54 77.5989 842.221 19.3585 828.695L15.6284 844.236ZM177.925 809.737C156.992 797.134 136.968 783.095 117.913 767.754L107.779 780.18C127.381 795.962 147.996 810.417 169.562 823.401L177.925 809.737ZM118.581 746.689C131.796 757.39 148.599 772.4 166.071 784.074C183.455 795.69 203.333 805.332 223.339 803.809L222.204 787.898C207.843 788.991 191.818 782.005 175.067 770.812C158.402 759.678 142.837 745.698 128.751 734.291L118.581 746.689ZM223.339 803.809C242.388 802.359 261.896 793.167 279.667 783.719C298.115 773.912 314.56 763.943 329.537 758.636L324.229 743.607C307.745 749.449 289.318 760.537 272.167 769.655C254.34 779.132 237.523 786.732 222.204 787.898L223.339 803.809ZM331.506 744.576C321.999 737.959 313.767 731.055 305.95 724.273C298.235 717.579 290.686 710.786 283.019 704.899C267.335 692.856 250.237 683.861 225.755 683.642L225.521 699.599C245.376 699.777 259.178 706.806 273.172 717.551C280.344 723.058 287.328 729.35 295.367 736.324C303.303 743.21 312.045 750.558 322.259 757.668L331.506 744.576ZM225.731 683.642C209.209 683.544 187.754 691.039 167.533 699.515C157.22 703.838 146.862 708.582 137.179 713.053C127.436 717.552 118.45 721.739 110.655 725.066L116.91 739.725C124.981 736.281 134.244 731.964 143.866 727.521C153.549 723.05 163.673 718.415 173.692 714.215C194.135 705.645 212.742 699.523 225.546 699.599L225.731 683.642ZM108.648 738.554L118.432 746.609L128.701 734.293L118.917 726.237L108.648 738.554ZM441.41 871.501C460.337 844.845 461.834 820.983 450.717 802.832C440.054 785.423 419.162 775.685 398.368 773.463L396.566 789.33C414.234 791.218 429.736 799.323 437.004 811.19C443.819 822.316 444.784 839.161 428.324 862.344L441.41 871.501ZM398.368 773.463C377.205 771.202 351.247 778.046 325.482 786.453C298.931 795.117 272.46 805.473 247.61 812.143L251.708 827.548C277.001 820.76 305.203 809.837 330.405 801.613C356.393 793.133 379.267 787.482 396.566 789.33L398.368 773.463ZM247.634 812.137C217.01 820.258 187.151 830.862 158.278 843.687L164.751 858.252C192.866 845.764 221.916 835.449 251.685 827.554L247.634 812.137ZM158.226 858.265C194.403 874.239 253.815 892.107 309.23 899.111C336.932 902.613 364.084 903.46 387.038 899.775C409.802 896.121 429.896 887.76 441.416 871.493L428.318 862.352C420.482 873.417 405.599 880.646 384.569 884.022C363.728 887.367 338.267 886.684 311.34 883.281C257.499 876.475 199.591 859.034 164.803 843.674L158.226 858.265ZM161.781 538.316L135.402 546.576L140.141 561.795L166.52 553.535L161.781 538.316ZM133.244 560.796C178.309 591.205 221.048 586.54 267.293 583.112C313.554 579.682 365.364 577.083 433.096 607.828L439.823 593.304C368.368 560.869 313.261 563.709 266.19 567.198C219.101 570.689 182.091 574.424 142.3 547.575L133.244 560.796ZM443.783 597.271C420.558 545.689 367.725 525.731 313.42 521.067C258.916 516.387 200.561 526.8 162.07 538.367L166.63 553.64C203.802 542.47 260.045 532.509 311.951 536.966C364.057 541.44 409.447 560.132 429.136 603.861L443.783 597.271Z" fill="#427265" mask="url(#path-3-inside-1_439_2208)"/>
</g>
<g opacity="0.6">
<mask id="path-5-inside-2_439_2208" fill="white">
<path d="M684.077 422.822C644.466 363.704 597.751 309.634 544.89 261.67C612.068 268.327 746.438 279.601 785.895 347.41C821.856 409.296 726.526 486.921 683.878 422.744M1027.9 718.259C1126.77 765.344 1224.64 814.313 1321.67 865.107C1348.11 879.035 1411.08 929.385 1441.35 928.911C1495.63 927.534 1552.23 767.956 1518.11 731.002C1501.46 713.084 1457.26 702.623 1435.28 692.497C1373.98 664.06 1312.65 635.72 1251.28 607.478C1109.26 542.162 967.061 477.003 823.858 414.062C807.667 474.636 737.899 508.217 682.134 473.772C632.244 442.775 605.875 370.228 560.595 331.498C497.757 277.675 384.43 269.112 302.516 253.815C401.713 341.607 269.158 374.237 323.165 455.159C345.507 488.728 440.762 490.066 489.528 503.231C552.282 520.309 613.992 540.84 674.498 564.649C794.511 610.168 911.562 663.046 1027.67 718.279M187.906 375.34C268.83 420.026 337.721 336.772 270.961 273.791C213.63 219.748 95.1809 235.084 28.7275 245.533C91.7254 278.619 124.624 340.096 188.105 375.418M-200.276 346.823C-253.719 318.065 -313.7 381.752 -350.459 424.117C-311.879 427.932 -265.234 450.378 -227.401 442.874C-181.441 433.795 -144.517 393.313 -100.202 379.154C-99.3194 374.955 -189.923 352.033 -200.158 346.528M-225.158 294.069C-216.734 299.203 -128.711 337.134 -76.5205 324.028C-68.4552 321.746 26.7841 296.483 34.0118 286.256C2.78491 260.443 -36.4892 222.258 -75.6208 220.385C-128.61 218.288 -195.155 259.616 -239.896 284.86L-225.438 293.618M-70.4571 401.201C-100.449 404.403 -140.49 446.613 -165.232 464.269C-104.614 478.346 -64.764 466.976 -8.98152 444.372C-30.231 431.578 -50.5502 417.331 -69.879 401.77M-59.0589 368.293C-31.759 390.401 5.67945 426.273 40.0467 423.656C74.414 421.04 112.697 390.073 144.158 378.925C104.715 351.47 87.2493 319.82 42.913 319.423C13.5877 319.25 -37.2109 346.657 -68.9428 360.198L-59.1584 368.254M252.142 494.725C287.529 444.887 253.204 413.309 214.742 409.199C176.28 405.09 117.077 434.19 66.9343 447.648C36.7375 455.656 7.2832 466.116 -21.2106 478.772C49.7547 510.106 213.429 549.391 252.142 494.725ZM-18.5742 173.728L-44.9532 181.988C39.9029 239.246 114.546 165.189 253.735 228.369C210.82 133.058 57.2882 151.069 -18.3752 173.806"/>
</mask>
<path d="M940.599 329.178L941.349 327.314L933.905 324.384L933.155 326.249L940.599 329.178ZM941.469 327.588L941.904 326.509L934.459 323.58L934.025 324.659L941.469 327.588ZM544.89 261.67L545.73 253.73L521.566 251.335L539.467 267.578L544.89 261.67ZM785.895 347.41L792.845 343.388L792.843 343.384L785.895 347.41ZM1321.67 865.107L1325.45 858.052L1325.44 858.047L1325.43 858.042L1321.67 865.107ZM1441.35 928.911L1441.44 936.888L1441.47 936.888L1441.51 936.887L1441.35 928.911ZM1518.11 731.002L1524.03 725.587L1524.03 725.578L1524.02 725.568L1518.11 731.002ZM1435.28 692.497L1431.85 699.732L1431.86 699.736L1431.87 699.741L1435.28 692.497ZM1251.28 607.478L1254.68 600.233L1254.67 600.233L1251.28 607.478ZM823.858 414.062L827.134 406.761L818.532 402.98L816.107 412.052L823.858 414.062ZM682.134 473.772L677.857 480.546L677.866 480.551L677.875 480.557L682.134 473.772ZM560.595 331.498L555.342 337.556L555.346 337.56L560.595 331.498ZM302.516 253.815L304.038 245.972L275.541 240.651L297.165 259.789L302.516 253.815ZM323.165 455.159L329.861 450.728L329.855 450.72L323.165 455.159ZM489.528 503.231L491.685 495.534L491.677 495.532L491.67 495.53L489.528 503.231ZM674.498 564.649L671.512 572.071L671.558 572.089L671.604 572.106L674.498 564.649ZM270.961 273.791L276.498 267.987L276.496 267.985L270.961 273.791ZM28.7275 245.533L27.5184 237.652L3.64916 241.405L24.9515 252.593L28.7275 245.533ZM-350.459 424.117L-356.519 418.923L-366.602 430.543L-351.297 432.057L-350.459 424.117ZM-227.401 442.874L-228.921 435.049L-228.927 435.05L-227.401 442.874ZM-100.202 379.154L-97.7879 386.749L-93.3129 385.319L-92.3513 380.745L-100.202 379.154ZM-76.5205 324.028L-74.5981 331.764L-74.4816 331.734L-74.366 331.702L-76.5205 324.028ZM34.0118 286.256L40.5651 290.82L44.8255 284.792L39.1588 280.108L34.0118 286.256ZM-75.6208 220.385L-75.1906 212.415L-75.2239 212.414L-75.2571 212.413L-75.6208 220.385ZM-239.896 284.86L-243.824 277.925L-255.722 284.639L-244.096 291.681L-239.896 284.86ZM-165.232 464.269L-169.883 457.794L-184.259 468.053L-167.097 472.039L-165.232 464.269ZM-8.98152 444.372L-5.9911 451.759L8.83647 445.75L-4.79998 437.54L-8.98152 444.372ZM144.158 378.925L146.812 386.439L161.502 381.234L148.781 372.379L144.158 378.925ZM42.913 319.423L43.0301 311.445L43.0178 311.445L43.0056 311.445L42.913 319.423ZM-68.9428 360.198L-72.0704 352.868L-84.1824 358.037L-74.0776 366.356L-68.9428 360.198ZM252.142 494.725L245.599 490.146L245.593 490.154L252.142 494.725ZM66.9343 447.648L68.9601 455.357L68.9717 455.354L68.9834 455.351L66.9343 447.648ZM-21.2106 478.772L-24.4468 471.49L-40.932 478.812L-24.499 486.068L-21.2106 478.772ZM-44.9532 181.988L-47.3227 174.379L-63.1916 179.348L-49.4814 188.599L-44.9532 181.988ZM253.735 228.369L250.371 235.631L269.778 244.44L261.058 225.073L253.735 228.369ZM690.76 418.371C650.788 358.717 603.65 304.157 550.314 255.761L539.467 267.578C591.852 315.111 638.144 368.692 677.395 427.273L690.76 418.371ZM544.051 269.609C577.799 272.953 627.525 277.389 673.73 289.331C720.393 301.391 760.951 320.509 778.947 351.435L792.843 343.384C771.381 306.501 725.026 286.078 677.845 273.885C630.207 261.573 579.16 257.043 545.73 253.73L544.051 269.609ZM778.945 351.431C794.263 377.794 782.124 408.498 759.457 426.067C748.286 434.726 735.359 439.436 723.35 438.783C711.671 438.149 699.946 432.417 690.577 418.318L677.18 427.17C689.135 445.16 705.319 453.79 722.386 454.717C739.121 455.626 755.776 449.095 769.273 438.634C795.942 417.963 813.488 378.912 792.845 343.388L778.945 351.431ZM1024.41 725.459C1123.18 772.499 1220.96 821.424 1317.9 872.173L1325.43 858.042C1228.32 807.203 1130.36 758.188 1031.4 711.059L1024.41 725.459ZM1317.88 872.163C1324.08 875.426 1332.63 880.949 1342.8 887.672C1352.83 894.3 1364.25 901.968 1375.78 909.173C1387.3 916.372 1399.17 923.263 1410.19 928.344C1420.98 933.315 1431.97 937.037 1441.44 936.888L1441.27 920.933C1435.6 921.022 1427.36 918.628 1417 913.857C1406.88 909.195 1395.68 902.717 1384.37 895.647C1373.06 888.583 1361.89 881.082 1351.73 874.366C1341.71 867.747 1332.48 861.753 1325.45 858.052L1317.88 872.163ZM1441.51 936.887C1458.86 936.447 1474.6 923.67 1487.34 907.506C1500.41 890.94 1511.87 868.911 1520.4 846.037C1528.94 823.148 1534.73 798.926 1536.15 777.81C1536.86 767.251 1536.49 757.23 1534.7 748.431C1532.91 739.681 1529.61 731.627 1524.03 725.587L1512.19 736.417C1515.14 739.616 1517.54 744.632 1518.98 751.688C1520.4 758.694 1520.79 767.214 1520.14 776.834C1518.85 796.075 1513.49 818.762 1505.36 840.559C1497.23 862.37 1486.49 882.804 1474.74 897.701C1462.68 913 1450.98 920.686 1441.19 920.934L1441.51 936.887ZM1524.02 725.568C1514.28 715.088 1497.36 707.45 1481.63 701.386C1473.57 698.28 1465.3 695.407 1457.91 692.757C1450.39 690.065 1443.82 687.619 1438.68 685.254L1431.87 699.741C1437.73 702.438 1444.92 705.098 1452.4 707.774C1459.99 710.494 1467.94 713.255 1475.76 716.27C1491.78 722.447 1505.3 728.998 1512.21 736.436L1524.02 725.568ZM1438.7 685.263C1377.4 656.822 1316.06 628.478 1254.68 600.233L1247.87 614.723C1309.24 642.961 1370.57 671.297 1431.85 699.732L1438.7 685.263ZM1254.67 600.233C1112.66 534.917 970.406 469.732 827.134 406.761L820.582 421.363C963.716 484.274 1105.86 549.408 1247.88 614.724L1254.67 600.233ZM816.107 412.052C801.13 468.083 737.02 498.259 686.393 466.987L677.875 480.557C738.777 518.175 814.204 481.188 831.609 416.072L816.107 412.052ZM686.411 466.998C663.07 452.496 644.844 427.991 626.262 401.001C608.074 374.585 589.476 345.649 565.845 325.436L555.346 337.56C576.995 356.077 594.221 382.779 613.01 410.068C631.404 436.784 651.308 464.051 677.857 480.546L686.411 466.998ZM565.849 325.439C532.933 297.246 487.338 281.298 440.574 270.439C394.037 259.632 344.187 253.47 304.038 245.972L300.993 261.657C342.759 269.456 390.53 275.225 436.844 285.98C482.932 296.682 525.42 311.927 555.342 337.556L565.849 325.439ZM297.165 259.789C321.198 281.059 330.051 297.987 332.054 312.091C334.07 326.294 329.423 339.293 322.547 353.668C315.957 367.447 306.791 383.272 303.249 400.334C299.526 418.264 301.817 437.634 316.475 459.598L329.855 450.72C317.51 432.222 316.117 417.168 318.959 403.477C321.981 388.918 329.628 375.926 337.026 360.458C344.139 345.587 350.655 328.909 347.939 309.773C345.208 290.54 333.432 270.467 307.866 247.841L297.165 259.789ZM316.469 459.589C323.399 470.001 335.371 477.14 348.74 482.402C362.277 487.73 378.385 491.567 394.899 494.685C411.422 497.806 428.823 500.29 444.824 502.77C460.99 505.276 475.677 507.771 487.387 510.932L491.67 495.53C478.996 492.109 463.489 489.5 447.381 487.003C431.109 484.48 414.156 482.063 397.977 479.007C381.788 475.95 366.846 472.334 354.715 467.559C342.415 462.718 334.102 457.101 329.861 450.728L316.469 459.589ZM487.371 510.928C549.839 527.928 611.272 548.367 671.512 572.071L677.485 557.227C616.712 533.314 554.725 512.69 491.685 495.534L487.371 510.928ZM671.604 572.106C791.322 617.513 908.15 670.286 1024.17 725.48L1031.16 711.077C914.974 655.805 797.7 602.822 677.393 557.192L671.604 572.106ZM183.983 382.321C227.303 406.242 269.185 396.519 291.013 369.971C313.059 343.158 312.455 301.909 276.498 267.987L265.424 279.594C296.228 308.654 294.558 340.523 278.618 359.91C262.459 379.563 229.433 389.124 191.829 368.359L183.983 382.321ZM276.496 267.985C245.668 238.925 199.245 229.139 153.599 227.504C107.68 225.859 60.7956 232.419 27.5184 237.652L29.9366 253.414C63.1128 248.197 108.679 241.865 152.932 243.451C197.456 245.046 238.923 254.614 265.427 279.597L276.496 267.985ZM24.9515 252.593C55.2344 268.497 78.419 291.281 102.546 315.293C126.455 339.089 151.299 364.103 184.16 382.387L192.051 368.449C161.43 351.412 138.084 328.026 113.924 303.981C89.982 280.152 65.2185 255.654 32.5035 238.472L24.9515 252.593ZM-196.429 339.8C-227.106 323.293 -258.916 333.967 -286.083 352.192C-313.344 370.479 -338.148 397.751 -356.519 418.923L-344.4 429.311C-326.011 408.118 -302.445 382.364 -277.165 365.406C-251.791 348.385 -226.89 341.594 -204.123 353.845L-196.429 339.8ZM-351.297 432.057C-332.753 433.89 -312.536 440.164 -290.593 445.492C-269.345 450.651 -246.69 454.827 -225.875 450.699L-228.927 435.05C-245.945 438.425 -265.529 435.13 -286.707 429.988C-307.19 425.015 -329.586 418.159 -349.622 416.177L-351.297 432.057ZM-225.881 450.7C-201.228 445.83 -179.331 432.612 -158.896 419.638C-138.002 406.372 -118.714 393.435 -97.7879 386.749L-102.616 371.559C-126.005 379.032 -147.337 393.416 -167.474 406.2C-188.069 419.277 -207.614 430.839 -228.921 435.049L-225.881 450.7ZM-92.3513 380.745C-91.5376 376.875 -93.6652 374.196 -94.3193 373.449C-95.1729 372.473 -96.1101 371.821 -96.6648 371.462C-97.8561 370.69 -99.2837 370.015 -100.602 369.448C-103.348 368.265 -107.126 366.915 -111.436 365.487C-120.123 362.61 -131.819 359.141 -143.716 355.673C-155.682 352.185 -167.86 348.695 -177.734 345.72C-182.667 344.234 -186.947 342.9 -190.282 341.778C-193.837 340.583 -195.726 339.82 -196.312 339.505L-204.004 353.552C-202.031 354.612 -198.85 355.77 -195.495 356.898C-191.919 358.101 -187.449 359.493 -182.463 360.995C-172.497 363.998 -160.16 367.533 -148.306 370.989C-136.383 374.464 -124.954 377.857 -116.581 380.63C-112.361 382.028 -109.126 383.201 -107.046 384.097C-106.542 384.314 -106.152 384.495 -105.863 384.64C-105.559 384.792 -105.449 384.863 -105.469 384.85C-105.483 384.841 -105.578 384.779 -105.723 384.663C-105.856 384.556 -106.129 384.325 -106.445 383.964C-106.808 383.55 -108.812 381.17 -108.053 377.563L-92.3513 380.745ZM-229.376 300.879C-226.621 302.558 -218.952 306.109 -208.73 310.171C-198.275 314.324 -184.6 319.228 -169.514 323.556C-139.794 332.082 -102.932 338.879 -74.5981 331.764L-78.4429 316.293C-102.3 322.284 -135.544 316.668 -164.989 308.221C-179.486 304.063 -192.657 299.34 -202.708 295.347C-212.989 291.262 -219.482 288.148 -220.94 287.259L-229.376 300.879ZM-74.366 331.702C-70.5053 330.609 -44.4476 323.658 -18.6187 315.746C-5.70181 311.789 7.33631 307.538 17.6619 303.599C22.8085 301.635 27.448 299.687 31.12 297.83C32.9526 296.904 34.686 295.93 36.1765 294.914C37.5373 293.987 39.2795 292.639 40.5651 290.82L27.4585 281.692C27.8407 281.151 27.9919 281.199 27.1595 281.766C26.457 282.245 25.3952 282.865 23.9161 283.613C20.9648 285.104 16.9149 286.825 11.9903 288.704C2.17379 292.449 -10.4572 296.574 -23.2618 300.497C-48.8758 308.344 -74.4704 315.165 -78.675 316.355L-74.366 331.702ZM39.1588 280.108C23.9444 267.531 5.75832 251.057 -13.2048 237.806C-32.164 224.557 -53.305 213.463 -75.1906 212.415L-76.0509 228.355C-58.805 229.18 -40.7431 238.115 -22.4756 250.88C-4.21206 263.643 12.8524 279.168 28.8649 292.404L39.1588 280.108ZM-75.2571 212.413C-103.713 211.286 -135.03 221.767 -164.175 235.126C-193.431 248.537 -221.7 265.442 -243.824 277.925L-235.968 291.795C-213.352 279.034 -185.977 262.653 -157.528 249.613C-128.968 236.521 -100.518 227.387 -75.9844 228.358L-75.2571 212.413ZM-244.096 291.681L-229.637 300.439L-221.238 286.797L-235.696 278.039L-244.096 291.681ZM-71.2688 393.268C-80.3178 394.234 -89.5484 398.047 -98.3461 402.977C-107.218 407.948 -116.175 414.357 -124.744 421.049C-133.317 427.744 -141.716 434.893 -149.367 441.34C-157.115 447.869 -164.008 453.602 -169.883 457.794L-160.58 470.743C-154.084 466.107 -146.694 459.943 -139.038 453.492C-131.286 446.959 -123.161 440.045 -114.882 433.58C-106.599 427.112 -98.3763 421.265 -90.5321 416.87C-82.6138 412.433 -75.5924 409.769 -69.6455 409.134L-71.2688 393.268ZM-167.097 472.039C-104.101 486.669 -62.3817 474.609 -5.9911 451.759L-11.9719 436.985C-67.1463 459.343 -105.126 470.024 -163.367 456.498L-167.097 472.039ZM-4.79998 437.54C-25.7328 424.937 -45.7566 410.898 -64.8116 395.557L-74.9464 407.983C-55.3437 423.765 -34.7292 438.219 -13.163 451.204L-4.79998 437.54ZM-64.1439 374.491C-50.9293 385.193 -34.126 400.203 -16.6546 411.877C0.730005 423.493 20.6081 433.135 40.6143 431.612L39.4792 415.701C25.1181 416.794 9.09327 409.808 -7.65813 398.615C-24.3227 387.48 -39.8885 373.5 -53.9738 362.094L-64.1439 374.491ZM40.6143 431.612C59.663 430.162 79.1713 420.969 96.9421 411.522C115.39 401.715 131.835 391.746 146.812 386.439L141.504 371.41C125.02 377.251 106.593 388.34 89.4424 397.458C71.6146 406.935 54.7977 414.535 39.4792 415.701L40.6143 431.612ZM148.781 372.379C139.274 365.762 131.042 358.858 123.225 352.076C115.51 345.382 107.961 338.589 100.294 332.701C84.6102 320.659 67.5116 311.664 43.0301 311.445L42.7959 327.402C62.6507 327.58 76.4532 334.609 90.447 345.354C97.6185 350.86 104.603 357.152 112.641 364.127C120.578 371.013 129.32 378.36 139.534 385.47L148.781 372.379ZM43.0056 311.445C26.4835 311.347 5.02843 318.841 -15.1921 327.318C-25.5047 331.64 -35.8626 336.385 -45.546 340.856C-55.2889 345.355 -64.2752 349.542 -72.0704 352.868L-65.8153 367.528C-57.7445 364.084 -48.4816 359.767 -38.8587 355.324C-29.1763 350.853 -19.052 346.217 -9.03276 342.018C11.4103 333.448 30.0172 327.326 42.8205 327.402L43.0056 311.445ZM-74.0776 366.356L-64.2931 374.412L-54.0236 362.095L-63.8081 354.04L-74.0776 366.356ZM258.685 499.304C277.612 472.648 279.109 448.785 267.992 430.635C257.329 413.226 236.437 403.488 215.643 401.266L213.841 417.133C231.509 419.02 247.011 427.126 254.279 438.993C261.093 450.119 262.059 466.964 245.599 490.146L258.685 499.304ZM215.643 401.266C194.48 399.005 168.522 405.849 142.757 414.256C116.206 422.92 89.7352 433.276 64.8853 439.946L68.9834 455.351C94.2757 448.562 122.478 437.639 147.68 429.416C173.668 420.936 196.542 415.284 213.841 417.133L215.643 401.266ZM64.9086 439.939C34.2846 448.061 4.42599 458.665 -24.4468 471.49L-17.9744 486.055C10.1404 473.567 39.1905 463.252 68.9601 455.357L64.9086 439.939ZM-24.499 486.068C11.6783 502.041 71.0895 519.91 126.505 526.914C154.207 530.415 181.359 531.262 204.313 527.578C227.077 523.924 247.171 515.563 258.691 499.295L245.593 490.154C237.757 501.22 222.874 508.449 201.843 511.824C181.003 515.17 155.542 514.487 128.615 511.083C74.7743 504.278 16.8658 486.837 -17.9222 471.476L-24.499 486.068ZM-20.9437 166.119L-47.3227 174.379L-42.5837 189.598L-16.2048 181.337L-20.9437 166.119ZM-49.4814 188.599C-4.41619 219.008 38.3233 214.343 84.5678 210.914C130.829 207.485 182.639 204.886 250.371 235.631L257.098 221.107C185.643 188.672 130.536 191.511 83.4645 195.001C36.3762 198.492 -0.634128 202.227 -40.4249 175.377L-49.4814 188.599ZM261.058 225.073C237.833 173.492 185 153.534 130.695 148.87C76.1908 144.19 17.8361 154.603 -20.6554 166.17L-16.095 181.443C21.0769 170.273 77.3197 160.311 129.226 164.769C181.332 169.243 226.721 187.934 246.411 231.664L261.058 225.073Z" fill="#427265" mask="url(#path-5-inside-2_439_2208)"/>
</g>
<g opacity="0.6">
<mask id="path-7-inside-3_439_2208" fill="white">
<path d="M-400.76 -294.411C-440.372 -353.529 -487.087 -407.6 -539.947 -455.564C-472.77 -448.907 -338.4 -437.633 -298.943 -369.824C-262.982 -307.937 -358.311 -230.313 -400.959 -294.49M-56.9333 1.02506C41.9302 48.1101 139.805 97.0793 236.83 147.874C263.272 161.802 326.239 212.152 356.517 211.677C410.788 210.301 467.396 50.7221 433.275 13.7685C416.623 -4.14951 372.418 -14.6108 350.44 -24.7363C289.145 -53.1742 227.811 -81.5139 166.437 -109.756C24.4198 -175.071 -117.776 -240.23 -260.98 -303.172C-277.171 -242.598 -346.939 -209.016 -402.704 -243.462C-452.594 -274.459 -478.963 -347.006 -524.242 -385.736C-587.08 -439.558 -700.408 -448.122 -782.322 -463.419C-683.125 -375.627 -815.68 -342.997 -761.672 -262.075C-739.33 -228.506 -644.076 -227.168 -595.309 -214.003C-532.556 -196.925 -470.846 -176.393 -410.339 -152.585C-290.327 -107.066 -173.275 -54.1879 -57.1718 1.04486M-896.932 -341.894C-816.008 -297.208 -747.116 -380.462 -813.877 -443.443C-871.208 -497.486 -989.657 -482.15 -1056.11 -471.701C-993.112 -438.615 -960.214 -377.138 -896.733 -341.816M-1285.11 -370.411C-1338.56 -399.169 -1398.54 -335.481 -1435.3 -293.117C-1396.72 -289.302 -1350.07 -266.856 -1312.24 -274.359C-1266.28 -283.439 -1229.35 -323.92 -1185.04 -338.08C-1184.16 -342.279 -1274.76 -365.201 -1285 -370.706M-1310 -423.165C-1301.57 -418.031 -1213.55 -380.099 -1161.36 -393.206C-1153.29 -395.488 -1058.05 -420.751 -1050.83 -430.978C-1082.05 -456.791 -1121.33 -494.976 -1160.46 -496.849C-1213.45 -498.946 -1279.99 -457.618 -1324.73 -432.374L-1310.28 -423.616M-1155.29 -316.033C-1185.29 -312.831 -1225.33 -270.621 -1250.07 -252.965C-1189.45 -238.887 -1149.6 -250.257 -1093.82 -272.862C-1115.07 -285.656 -1135.39 -299.902 -1154.72 -315.464M-1143.9 -348.941C-1116.6 -326.833 -1079.16 -290.961 -1044.79 -293.577C-1010.42 -296.194 -972.14 -327.161 -940.68 -338.309C-980.123 -365.763 -997.588 -397.413 -1041.92 -397.811C-1071.25 -397.984 -1122.05 -370.577 -1153.78 -357.036L-1144 -348.98M-832.696 -222.509C-797.309 -272.347 -831.634 -303.925 -870.096 -308.034C-908.558 -312.144 -967.761 -283.043 -1017.9 -269.586C-1048.1 -261.578 -1077.55 -251.118 -1106.05 -238.462C-1035.08 -207.128 -871.409 -167.842 -832.696 -222.509ZM-1103.41 -543.506L-1129.79 -535.246C-1044.93 -477.987 -970.291 -552.045 -831.103 -488.865C-874.018 -584.176 -1027.55 -566.165 -1103.21 -543.427"/>
</mask>
<path d="M-144.239 -388.056L-143.488 -389.92L-150.933 -392.849L-151.683 -390.985L-144.239 -388.056ZM-143.368 -389.645L-142.934 -390.725L-150.378 -393.654L-150.813 -392.575L-143.368 -389.645ZM-539.947 -455.564L-539.108 -463.504L-563.272 -465.898L-545.371 -449.656L-539.947 -455.564ZM-298.943 -369.824L-291.993 -373.846L-291.995 -373.85L-298.943 -369.824ZM236.83 147.874L240.614 140.818L240.606 140.813L240.597 140.808L236.83 147.874ZM356.517 211.677L356.598 219.655L356.637 219.654L356.676 219.653L356.517 211.677ZM433.275 13.7685L439.196 8.35344L439.188 8.34408L439.179 8.33474L433.275 13.7685ZM350.44 -24.7363L347.016 -17.502L347.026 -17.4975L347.036 -17.4931L350.44 -24.7363ZM166.437 -109.756L169.839 -117L169.837 -117.001L166.437 -109.756ZM-260.98 -303.172L-257.704 -310.473L-266.306 -314.254L-268.731 -305.182L-260.98 -303.172ZM-402.704 -243.462L-406.98 -236.688L-406.971 -236.682L-406.962 -236.677L-402.704 -243.462ZM-524.242 -385.736L-529.496 -379.677L-529.492 -379.674L-524.242 -385.736ZM-782.322 -463.419L-780.799 -471.261L-809.296 -476.583L-787.672 -457.445L-782.322 -463.419ZM-761.672 -262.075L-754.977 -266.505L-754.982 -266.514L-761.672 -262.075ZM-595.309 -214.003L-593.152 -221.699L-593.16 -221.701L-593.168 -221.704L-595.309 -214.003ZM-410.339 -152.585L-413.326 -145.163L-413.28 -145.145L-413.234 -145.127L-410.339 -152.585ZM-813.877 -443.443L-808.34 -449.247L-808.342 -449.249L-813.877 -443.443ZM-1056.11 -471.701L-1057.32 -479.582L-1081.19 -475.828L-1059.89 -464.641L-1056.11 -471.701ZM-1435.3 -293.117L-1441.36 -298.311L-1451.44 -286.691L-1436.13 -285.177L-1435.3 -293.117ZM-1312.24 -274.359L-1313.76 -282.185L-1313.76 -282.184L-1312.24 -274.359ZM-1185.04 -338.08L-1182.63 -330.485L-1178.15 -331.914L-1177.19 -336.488L-1185.04 -338.08ZM-1161.36 -393.206L-1159.44 -385.47L-1159.32 -385.499L-1159.2 -385.532L-1161.36 -393.206ZM-1050.83 -430.978L-1044.27 -426.414L-1040.01 -432.442L-1045.68 -437.126L-1050.83 -430.978ZM-1160.46 -496.849L-1160.03 -504.818L-1160.06 -504.82L-1160.09 -504.821L-1160.46 -496.849ZM-1324.73 -432.374L-1328.66 -439.308L-1340.56 -432.595L-1328.93 -425.553L-1324.73 -432.374ZM-1250.07 -252.965L-1254.72 -259.439L-1269.1 -249.181L-1251.93 -245.195L-1250.07 -252.965ZM-1093.82 -272.862L-1090.83 -265.475L-1076 -271.483L-1089.64 -279.694L-1093.82 -272.862ZM-940.68 -338.309L-938.026 -330.795L-923.336 -336L-936.057 -344.855L-940.68 -338.309ZM-1041.92 -397.811L-1041.81 -405.789L-1041.82 -405.789L-1041.83 -405.789L-1041.92 -397.811ZM-1153.78 -357.036L-1156.91 -364.365L-1169.02 -359.197L-1158.92 -350.877L-1153.78 -357.036ZM-832.696 -222.509L-839.239 -227.087L-839.245 -227.079L-832.696 -222.509ZM-1017.9 -269.586L-1015.88 -261.877L-1015.87 -261.88L-1015.85 -261.883L-1017.9 -269.586ZM-1106.05 -238.462L-1109.28 -245.744L-1125.77 -238.422L-1109.34 -231.166L-1106.05 -238.462ZM-1129.79 -535.246L-1132.16 -542.855L-1148.03 -537.886L-1134.32 -528.635L-1129.79 -535.246ZM-831.103 -488.865L-834.467 -481.603L-815.059 -472.794L-823.779 -492.16L-831.103 -488.865ZM-394.078 -298.862C-434.049 -358.517 -481.187 -413.077 -534.524 -461.473L-545.371 -449.656C-492.986 -402.123 -446.694 -348.541 -407.442 -289.961L-394.078 -298.862ZM-540.787 -447.625C-507.039 -444.28 -457.312 -439.844 -411.108 -427.903C-364.445 -415.843 -323.886 -396.725 -305.891 -365.798L-291.995 -373.85C-313.457 -410.732 -359.812 -431.155 -406.992 -443.349C-454.631 -455.661 -505.678 -460.191 -539.108 -463.504L-540.787 -447.625ZM-305.893 -365.802C-290.574 -339.44 -302.713 -308.735 -325.381 -291.166C-336.552 -282.508 -349.478 -277.798 -361.488 -278.45C-373.167 -279.085 -384.891 -284.817 -394.26 -298.915L-407.658 -290.064C-395.703 -272.074 -379.519 -263.443 -362.452 -262.516C-345.716 -261.607 -329.062 -268.138 -315.565 -278.6C-288.895 -299.27 -271.35 -338.321 -291.993 -373.846L-305.893 -365.802ZM-60.4301 8.2251C38.34 55.2657 136.125 104.19 233.063 154.939L240.597 140.808C143.485 89.9688 45.5203 40.9545 -53.4365 -6.17503L-60.4301 8.2251ZM233.045 154.929C239.239 158.192 247.79 163.715 257.963 170.439C267.991 177.066 279.412 184.734 290.94 191.939C302.459 199.138 314.327 206.029 325.356 211.11C336.147 216.081 347.134 219.803 356.598 219.655L356.435 203.699C350.76 203.788 342.522 201.394 332.165 196.623C322.045 191.961 310.842 185.483 299.529 178.413C288.225 171.349 277.055 163.848 266.893 157.132C256.877 150.513 247.641 144.519 240.614 140.818L233.045 154.929ZM356.676 219.653C374.027 219.213 389.758 206.436 402.505 190.272C415.569 173.707 427.028 151.678 435.561 128.803C444.1 105.914 449.892 81.6919 451.312 60.576C452.022 50.0168 451.655 39.9966 449.861 31.1974C448.076 22.4477 444.773 14.3929 439.196 8.35344L427.354 19.1836C430.307 22.3825 432.699 27.3981 434.138 34.4539C435.567 41.4602 435.952 49.9805 435.305 59.5999C434.011 78.8411 428.657 101.528 420.525 123.325C412.388 145.137 401.652 165.57 389.904 180.467C377.839 195.766 366.142 203.452 356.357 203.701L356.676 219.653ZM439.179 8.33474C429.439 -2.14556 412.522 -9.78388 396.789 -15.848C388.731 -18.9541 380.466 -21.8267 373.068 -24.4766C365.551 -27.1691 358.979 -29.6144 353.845 -31.9796L347.036 -17.4931C352.891 -14.7956 360.085 -12.1361 367.558 -9.45929C375.15 -6.74002 383.099 -3.97883 390.92 -0.964202C406.947 5.21315 420.459 11.7645 427.371 19.2022L439.179 8.33474ZM353.864 -31.9707C292.562 -60.412 231.22 -88.7552 169.839 -117L163.036 -102.511C224.402 -74.2725 285.729 -45.9363 347.016 -17.502L353.864 -31.9707ZM169.837 -117.001C27.82 -182.317 -114.432 -247.501 -257.704 -310.473L-264.256 -295.871C-121.121 -232.96 21.0196 -167.826 163.038 -102.51L169.837 -117.001ZM-268.731 -305.182C-283.708 -249.151 -347.817 -218.975 -398.445 -250.247L-406.962 -236.677C-346.06 -199.058 -270.634 -236.045 -253.229 -301.162L-268.731 -305.182ZM-398.427 -250.236C-421.768 -264.738 -439.993 -289.243 -458.576 -316.232C-476.764 -342.649 -495.362 -371.585 -518.993 -391.798L-529.492 -379.674C-507.843 -361.156 -490.617 -334.454 -471.828 -307.165C-453.433 -280.449 -433.529 -253.183 -406.98 -236.688L-398.427 -250.236ZM-518.989 -391.794C-551.905 -419.988 -597.5 -435.935 -644.264 -446.795C-690.801 -457.602 -740.651 -463.764 -780.799 -471.261L-783.845 -455.577C-742.079 -447.777 -694.308 -442.009 -647.993 -431.254C-601.906 -420.552 -559.418 -405.306 -529.496 -379.677L-518.989 -391.794ZM-787.672 -457.445C-763.639 -436.175 -754.786 -419.247 -752.784 -405.142C-750.768 -390.94 -755.415 -377.941 -762.291 -363.565C-768.881 -349.787 -778.047 -333.961 -781.589 -316.9C-785.311 -298.969 -783.021 -279.599 -768.363 -257.636L-754.982 -266.514C-767.328 -285.011 -768.721 -300.066 -765.879 -313.756C-762.856 -328.316 -755.21 -341.307 -747.811 -356.776C-740.699 -371.647 -734.182 -388.324 -736.899 -407.46C-739.629 -426.694 -751.406 -446.767 -776.971 -469.393L-787.672 -457.445ZM-768.368 -257.645C-761.438 -247.233 -749.466 -240.094 -736.098 -234.832C-722.561 -229.503 -706.453 -225.667 -689.939 -222.548C-673.416 -219.428 -656.015 -216.944 -640.013 -214.463C-623.848 -211.958 -609.16 -209.463 -597.451 -206.301L-593.168 -221.704C-605.841 -225.125 -621.348 -227.734 -637.457 -230.231C-653.729 -232.753 -670.682 -235.171 -686.861 -238.226C-703.049 -241.284 -717.992 -244.899 -730.123 -249.674C-742.422 -254.516 -750.735 -260.133 -754.977 -266.505L-768.368 -257.645ZM-597.466 -206.306C-534.999 -189.306 -473.566 -168.867 -413.326 -145.163L-407.353 -160.006C-468.126 -183.92 -530.112 -204.544 -593.152 -221.699L-597.466 -206.306ZM-413.234 -145.127C-293.516 -99.7204 -176.687 -46.9476 -60.6653 8.24648L-53.6781 -6.1567C-169.863 -61.4283 -287.138 -114.411 -407.445 -160.042L-413.234 -145.127ZM-900.855 -334.913C-857.535 -310.992 -815.653 -320.715 -793.825 -347.263C-771.779 -374.076 -772.383 -415.325 -808.34 -449.247L-819.413 -437.639C-788.61 -408.58 -790.28 -376.711 -806.22 -357.324C-822.379 -337.671 -855.405 -328.11 -893.009 -348.875L-900.855 -334.913ZM-808.342 -449.249C-839.17 -478.308 -885.593 -488.095 -931.239 -489.73C-977.158 -491.375 -1024.04 -484.814 -1057.32 -479.582L-1054.9 -463.82C-1021.72 -469.037 -976.158 -475.368 -931.906 -473.783C-887.382 -472.188 -845.915 -462.62 -819.411 -437.637L-808.342 -449.249ZM-1059.89 -464.641C-1029.6 -448.736 -1006.42 -425.953 -982.292 -401.941C-958.383 -378.145 -933.539 -353.131 -900.678 -334.847L-892.787 -348.784C-923.408 -365.822 -946.754 -389.208 -970.914 -413.253C-994.856 -437.081 -1019.62 -461.58 -1052.33 -478.761L-1059.89 -464.641ZM-1281.27 -377.434C-1311.94 -393.941 -1343.75 -383.267 -1370.92 -365.042C-1398.18 -346.755 -1422.99 -319.483 -1441.36 -298.311L-1429.24 -287.923C-1410.85 -309.115 -1387.28 -334.869 -1362 -351.828C-1336.63 -368.849 -1311.73 -375.639 -1288.96 -363.389L-1281.27 -377.434ZM-1436.13 -285.177C-1417.59 -283.343 -1397.37 -277.069 -1375.43 -271.742C-1354.18 -266.583 -1331.53 -262.406 -1310.71 -266.535L-1313.76 -282.184C-1330.78 -278.808 -1350.37 -282.103 -1371.54 -287.245C-1392.03 -292.219 -1414.42 -299.075 -1434.46 -301.056L-1436.13 -285.177ZM-1310.72 -266.534C-1286.07 -271.404 -1264.17 -284.622 -1243.73 -297.596C-1222.84 -310.862 -1203.55 -323.798 -1182.63 -330.485L-1187.45 -345.675C-1210.84 -338.202 -1232.17 -323.818 -1252.31 -311.033C-1272.91 -297.957 -1292.45 -286.394 -1313.76 -282.185L-1310.72 -266.534ZM-1177.19 -336.488C-1176.38 -340.359 -1178.5 -343.037 -1179.16 -343.785C-1180.01 -344.76 -1180.95 -345.413 -1181.5 -345.772C-1182.69 -346.543 -1184.12 -347.218 -1185.44 -347.786C-1188.19 -348.969 -1191.96 -350.319 -1196.27 -351.746C-1204.96 -354.624 -1216.66 -358.093 -1228.55 -361.561C-1240.52 -365.049 -1252.7 -368.538 -1262.57 -371.513C-1267.5 -372.999 -1271.78 -374.334 -1275.12 -375.456C-1278.67 -376.651 -1280.56 -377.414 -1281.15 -377.729L-1288.84 -363.682C-1286.87 -362.621 -1283.69 -361.463 -1280.33 -360.335C-1276.76 -359.133 -1272.29 -357.741 -1267.3 -356.239C-1257.33 -353.236 -1245 -349.701 -1233.14 -346.245C-1221.22 -342.77 -1209.79 -339.377 -1201.42 -336.603C-1197.2 -335.206 -1193.96 -334.033 -1191.88 -333.137C-1191.38 -332.92 -1190.99 -332.739 -1190.7 -332.594C-1190.4 -332.442 -1190.29 -332.371 -1190.31 -332.383C-1190.32 -332.393 -1190.42 -332.455 -1190.56 -332.57C-1190.69 -332.677 -1190.97 -332.908 -1191.28 -333.27C-1191.65 -333.684 -1193.65 -336.063 -1192.89 -339.671L-1177.19 -336.488ZM-1314.21 -416.354C-1311.46 -414.676 -1303.79 -411.124 -1293.57 -407.063C-1283.11 -402.909 -1269.44 -398.006 -1254.35 -393.678C-1224.63 -385.152 -1187.77 -378.355 -1159.44 -385.47L-1163.28 -400.941C-1187.14 -394.95 -1220.38 -400.566 -1249.83 -409.012C-1264.32 -413.171 -1277.5 -417.894 -1287.55 -421.887C-1297.83 -425.972 -1304.32 -429.086 -1305.78 -429.975L-1314.21 -416.354ZM-1159.2 -385.532C-1155.34 -386.624 -1129.29 -393.576 -1103.46 -401.488C-1090.54 -405.445 -1077.5 -409.695 -1067.18 -413.635C-1062.03 -415.598 -1057.39 -417.547 -1053.72 -419.403C-1051.89 -420.33 -1050.15 -421.304 -1048.66 -422.319C-1047.3 -423.247 -1045.56 -424.594 -1044.27 -426.414L-1057.38 -435.542C-1057 -436.083 -1056.85 -436.035 -1057.68 -435.467C-1058.38 -434.989 -1059.44 -434.369 -1060.92 -433.621C-1063.87 -432.129 -1067.92 -430.409 -1072.85 -428.53C-1082.66 -424.785 -1095.29 -420.659 -1108.1 -416.737C-1133.71 -408.89 -1159.31 -402.069 -1163.51 -400.879L-1159.2 -385.532ZM-1045.68 -437.126C-1060.89 -449.702 -1079.08 -466.177 -1098.04 -479.428C-1117 -492.677 -1138.14 -503.771 -1160.03 -504.818L-1160.89 -488.879C-1143.64 -488.054 -1125.58 -479.119 -1107.31 -466.354C-1089.05 -453.591 -1071.99 -438.066 -1055.97 -424.83L-1045.68 -437.126ZM-1160.09 -504.821C-1188.55 -505.947 -1219.87 -495.467 -1249.01 -482.107C-1278.27 -468.697 -1306.54 -451.791 -1328.66 -439.308L-1320.81 -425.439C-1298.19 -438.2 -1270.81 -454.581 -1242.37 -467.621C-1213.81 -480.712 -1185.36 -489.847 -1160.82 -488.876L-1160.09 -504.821ZM-1328.93 -425.553L-1314.47 -416.795L-1306.08 -430.437L-1320.53 -439.195L-1328.93 -425.553ZM-1156.11 -323.966C-1165.16 -323 -1174.39 -319.187 -1183.18 -314.257C-1192.06 -309.286 -1201.01 -302.877 -1209.58 -296.185C-1218.16 -289.49 -1226.55 -282.341 -1234.21 -275.894C-1241.95 -269.365 -1248.85 -263.632 -1254.72 -259.439L-1245.42 -246.491C-1238.92 -251.126 -1231.53 -257.29 -1223.88 -263.742C-1216.12 -270.275 -1208 -277.189 -1199.72 -283.654C-1191.44 -290.122 -1183.21 -295.969 -1175.37 -300.364C-1167.45 -304.801 -1160.43 -307.465 -1154.48 -308.099L-1156.11 -323.966ZM-1251.93 -245.195C-1188.94 -230.565 -1147.22 -242.624 -1090.83 -265.475L-1096.81 -280.248C-1151.98 -257.891 -1189.96 -247.21 -1248.2 -260.736L-1251.93 -245.195ZM-1089.64 -279.694C-1110.57 -292.297 -1130.59 -306.336 -1149.65 -321.677L-1159.78 -309.251C-1140.18 -293.469 -1119.57 -279.014 -1098 -266.03L-1089.64 -279.694ZM-1148.98 -342.742C-1135.77 -332.041 -1118.96 -317.031 -1101.49 -305.357C-1084.11 -293.74 -1064.23 -284.099 -1044.22 -285.622L-1045.36 -301.533C-1059.72 -300.44 -1075.74 -307.426 -1092.5 -318.619C-1109.16 -329.753 -1124.73 -343.733 -1138.81 -355.14L-1148.98 -342.742ZM-1044.22 -285.622C-1025.17 -287.072 -1005.67 -296.264 -987.896 -305.712C-969.448 -315.519 -953.002 -325.488 -938.026 -330.795L-943.334 -345.823C-959.818 -339.982 -978.245 -328.894 -995.395 -319.776C-1013.22 -310.298 -1030.04 -302.699 -1045.36 -301.533L-1044.22 -285.622ZM-936.057 -344.855C-945.563 -351.472 -953.796 -358.376 -961.613 -365.158C-969.328 -371.852 -976.876 -378.645 -984.544 -384.532C-1000.23 -396.575 -1017.33 -405.57 -1041.81 -405.789L-1042.04 -389.832C-1022.19 -389.654 -1008.38 -382.625 -994.391 -371.88C-987.219 -366.373 -980.235 -360.081 -972.196 -353.107C-964.259 -346.221 -955.518 -338.873 -945.303 -331.763L-936.057 -344.855ZM-1041.83 -405.789C-1058.35 -405.887 -1079.81 -398.392 -1100.03 -389.916C-1110.34 -385.593 -1120.7 -380.849 -1130.38 -376.378C-1140.13 -371.879 -1149.11 -367.692 -1156.91 -364.365L-1150.65 -349.706C-1142.58 -353.15 -1133.32 -357.467 -1123.7 -361.91C-1114.01 -366.381 -1103.89 -371.016 -1093.87 -375.216C-1073.43 -383.785 -1054.82 -389.908 -1042.02 -389.832L-1041.83 -405.789ZM-1158.92 -350.877L-1149.13 -342.822L-1138.86 -355.138L-1148.65 -363.194L-1158.92 -350.877ZM-826.152 -217.93C-807.226 -244.586 -805.729 -268.448 -816.846 -286.599C-827.509 -304.007 -848.4 -313.746 -869.195 -315.968L-870.996 -300.101C-853.329 -298.213 -837.827 -290.108 -830.559 -278.241C-823.744 -267.115 -822.778 -250.27 -839.239 -227.087L-826.152 -217.93ZM-869.195 -315.968C-890.357 -318.229 -916.316 -311.385 -942.081 -302.978C-968.632 -294.314 -995.102 -283.958 -1019.95 -277.288L-1015.85 -261.883C-990.562 -268.671 -962.359 -279.594 -937.158 -287.818C-911.17 -296.298 -888.296 -301.949 -870.996 -300.101L-869.195 -315.968ZM-1019.93 -277.294C-1050.55 -269.173 -1080.41 -258.569 -1109.28 -245.744L-1102.81 -231.179C-1074.7 -243.667 -1045.65 -253.982 -1015.88 -261.877L-1019.93 -277.294ZM-1109.34 -231.166C-1073.16 -215.192 -1013.75 -197.324 -958.332 -190.32C-930.631 -186.818 -903.479 -185.971 -880.525 -189.656C-857.761 -193.31 -837.667 -201.671 -826.147 -217.938L-839.245 -227.079C-847.081 -216.014 -861.964 -208.785 -882.994 -205.409C-903.835 -202.064 -929.296 -202.747 -956.223 -206.15C-1010.06 -212.956 -1067.97 -230.397 -1102.76 -245.757L-1109.34 -231.166ZM-1105.78 -551.115L-1132.16 -542.855L-1127.42 -527.636L-1101.04 -535.896L-1105.78 -551.115ZM-1134.32 -528.635C-1089.25 -498.226 -1046.51 -502.891 -1000.27 -506.319C-954.009 -509.749 -902.199 -512.348 -834.467 -481.603L-827.739 -496.127C-899.195 -528.562 -954.302 -525.722 -1001.37 -522.233C-1048.46 -518.742 -1085.47 -515.007 -1125.26 -541.856L-1134.32 -528.635ZM-823.779 -492.16C-847.004 -543.741 -899.838 -563.7 -954.143 -568.364C-1008.65 -573.044 -1067 -562.631 -1105.49 -551.064L-1100.93 -535.791C-1063.76 -546.961 -1007.52 -556.922 -955.611 -552.465C-903.506 -547.991 -858.116 -529.299 -838.426 -485.57L-823.779 -492.16Z" fill="#427265" mask="url(#path-7-inside-3_439_2208)"/>
</g>
<g opacity="0.6">
<mask id="path-9-inside-4_439_2208" fill="white">
<path d="M2090.61 333.814C2068.66 266.299 2038.5 201.741 2000.74 141.416C2063.59 165.81 2189.85 212.638 2209.27 288.478C2226.94 357.681 2113.92 406.884 2090.44 333.686M2340.7 710.269C2422.98 782.064 2503.79 855.409 2583.29 930.282C2604.93 950.769 2651.76 1016.1 2681.03 1023.75C2733.65 1036.95 2831.84 898.489 2809.11 853.78C2797.99 832.074 2758.3 810.168 2739.91 794.536C2688.69 750.75 2637.41 707.048 2586.06 663.43C2467.23 562.531 2348.19 461.735 2227.57 362.805C2195.39 416.781 2119.04 430.43 2074.79 382.341C2035.25 339.144 2029.73 262.247 1996.74 212.841C1950.99 144.205 1844.24 105.62 1769.57 68.9634C1841.03 180.035 1704.49 175.957 1734.32 268.316C1746.64 306.613 1837.97 333.404 1881.31 359.133C1937.04 392.374 1990.83 428.661 2042.55 467.779C2145.62 543.729 2243.82 625.97 2340.47 710.225M1625.97 155.265C1691.63 219.948 1780.75 158.248 1733.73 79.7452C1693.33 12.3718 1575.11 -4.57796 1508.28 -12.3106C1559.86 36.4061 1574.7 104.395 1626.14 155.394M1260.09 23.8847C1216.52 -18.1073 1141.34 27.1432 1094.36 58.0836C1130.45 72.0854 1169.21 106.181 1207.68 109.087C1254.41 112.651 1301.04 83.5675 1347.58 81.8014C1349.58 77.9956 1268.63 31.6723 1260.29 23.633M1250.58 -33.5599C1257.29 -26.3628 1331.64 33.7185 1385.47 35.0749C1393.86 35.0375 1492.46 36.2159 1502.21 28.3063C1479.22 -4.90281 1451.87 -52.177 1414.71 -64.4563C1364.27 -80.6621 1288.9 -58.6935 1238.92 -46.3709L1250.44 -34.0689M1370.17 110.989C1340.43 106.041 1290.32 135.954 1261.67 146.327C1316.17 176.108 1357.65 175.831 1417.53 169.006C1400.58 151.001 1384.92 131.846 1370.58 111.691M1390.16 82.3612C1410.38 110.952 1436.6 155.508 1470.4 162.191C1504.2 168.873 1549.53 149.312 1582.87 147.003C1552.42 110.014 1544.27 74.8704 1501.7 62.6179C1473.52 54.5997 1417.11 67.3825 1382.86 71.9227L1390.07 82.2968M1655.12 287.389C1702.83 248.887 1678.43 209.298 1642.53 195.045C1606.63 180.791 1541.67 192.954 1489.72 192.485C1458.46 192.109 1427.24 194.292 1396.34 198.847C1456.08 248.01 1602.88 329.649 1655.12 287.389ZM1482.4 -94.0976L1454.75 -93.2084C1520.76 -15.3703 1612.89 -66.6774 1729.58 31.4076C1714.36 -71.8328 1561.63 -95.5996 1482.57 -93.9689"/>
</mask>
<path d="M2363.2 312.353L2364.43 310.759L2358.05 305.933L2356.81 307.527L2363.2 312.353ZM2364.47 311.055L2365.18 310.132L2358.8 305.307L2358.09 306.23L2364.47 311.055ZM2000.74 141.416L2003.7 134.006L1981.16 125.258L1993.9 145.62L2000.74 141.416ZM2209.27 288.478L2217.07 286.507L2217.07 286.503L2209.27 288.478ZM2583.29 930.282L2588.85 924.524L2588.85 924.517L2588.84 924.511L2583.29 930.282ZM2681.03 1023.75L2678.96 1031.44L2679 1031.45L2679.04 1031.46L2681.03 1023.75ZM2809.11 853.78L2816.3 850.188L2816.29 850.176L2816.29 850.165L2809.11 853.78ZM2739.91 794.536L2734.65 800.565L2734.65 800.572L2734.66 800.579L2739.91 794.536ZM2586.06 663.43L2591.31 657.385L2591.31 657.384L2586.06 663.43ZM2227.57 362.805L2232.71 356.672L2225.45 350.716L2220.64 358.776L2227.57 362.805ZM2074.79 382.341L2068.82 387.693L2068.83 387.7L2068.83 387.708L2074.79 382.341ZM1996.74 212.841L1990.03 217.236L1990.03 217.241L1996.74 212.841ZM1769.57 68.9634L1773.16 61.8323L1747.26 49.1147L1762.78 73.2507L1769.57 68.9634ZM1734.32 268.316L1741.98 265.883L1741.98 265.873L1734.32 268.316ZM1881.31 359.133L1885.47 352.314L1885.47 352.31L1885.46 352.306L1881.31 359.133ZM2042.55 467.779L2037.66 474.108L2037.7 474.137L2037.74 474.167L2042.55 467.779ZM1733.73 79.7452L1740.65 75.6729L1740.64 75.6702L1733.73 79.7452ZM1508.28 -12.3106L1509.23 -20.2149L1485.31 -22.9826L1502.72 -6.54587L1508.28 -12.3106ZM1094.36 58.0836L1089.91 51.462L1077.06 59.9287L1091.4 65.4939L1094.36 58.0836ZM1207.68 109.087L1208.32 101.152L1208.32 101.152L1207.68 109.087ZM1347.58 81.8014L1347.86 89.7536L1352.55 89.5759L1354.71 85.4567L1347.58 81.8014ZM1385.47 35.0749L1385.24 43.0305L1385.36 43.0335L1385.48 43.033L1385.47 35.0749ZM1502.21 28.3063L1507.3 34.457L1513.02 29.8182L1508.85 23.7955L1502.21 28.3063ZM1414.71 -64.4563L1417.28 -72.0054L1417.25 -72.0159L1417.21 -72.0261L1414.71 -64.4563ZM1238.92 -46.3709L1236.99 -54.0926L1223.76 -50.8302L1233.01 -40.9525L1238.92 -46.3709ZM1261.67 146.327L1258.93 138.854L1242.33 144.861L1257.77 153.296L1261.67 146.327ZM1417.53 169.006L1418.43 176.912L1434.28 175.105L1423.42 163.572L1417.53 169.006ZM1582.87 147.003L1583.41 154.942L1598.91 153.869L1589.11 141.966L1582.87 147.003ZM1501.7 62.6179L1503.97 54.9759L1503.95 54.9725L1503.94 54.9691L1501.7 62.6179ZM1382.86 71.9227L1381.81 64.035L1368.8 65.7599L1376.23 76.4465L1382.86 71.9227ZM1655.12 287.389L1650.05 281.227L1650.04 281.234L1655.12 287.389ZM1489.72 192.485L1489.6 200.442L1489.61 200.443L1489.62 200.443L1489.72 192.485ZM1396.34 198.847L1395.18 190.976L1377.37 193.601L1391.19 204.972L1396.34 198.847ZM1454.75 -93.2084L1454.51 -101.162L1437.94 -100.63L1448.58 -88.0824L1454.75 -93.2084ZM1729.58 31.4076L1724.36 37.4792L1740.62 51.142L1737.54 30.2372L1729.58 31.4076ZM2098.26 331.358C2076.12 263.228 2045.68 198.083 2007.58 137.212L1993.9 145.62C2031.31 205.4 2061.21 269.371 2082.95 336.271L2098.26 331.358ZM1997.79 148.826C2029.36 161.081 2076.01 178.663 2117.22 202.526C2158.83 226.626 2192.62 255.878 2201.47 290.453L2217.07 286.503C2206.5 245.238 2167.45 213.156 2125.37 188.783C2082.87 164.174 2034.97 146.145 2003.7 134.006L1997.79 148.826ZM2201.47 290.448C2209 319.938 2188.9 346.272 2162.25 357.124C2149.11 362.472 2135.38 363.54 2124.01 359.702C2112.96 355.971 2103.26 347.33 2098.1 331.258L2082.77 336.113C2089.36 356.641 2102.59 369.298 2118.78 374.767C2134.66 380.127 2152.48 378.294 2168.33 371.841C2199.64 359.09 2227.21 326.221 2217.07 286.507L2201.47 290.448ZM2335.37 716.245C2417.57 787.972 2498.31 861.248 2577.73 936.054L2588.84 924.511C2509.27 849.569 2428.39 776.157 2346.03 704.294L2335.37 716.245ZM2577.72 936.041C2582.78 940.837 2589.5 948.441 2597.45 957.638C2605.29 966.702 2614.19 977.142 2623.31 987.165C2632.43 997.18 2641.97 1006.99 2651.2 1014.84C2660.23 1022.52 2669.8 1029.05 2678.96 1031.44L2683.11 1016.05C2677.63 1014.62 2670.36 1010.12 2661.7 1002.75C2653.24 995.559 2644.23 986.326 2635.28 976.492C2626.33 966.666 2617.63 956.455 2609.69 947.269C2601.86 938.216 2594.61 929.971 2588.85 924.524L2577.72 936.041ZM2679.04 1031.46C2695.87 1035.69 2714.51 1027.59 2731.19 1015.45C2748.3 1003.01 2765.36 984.876 2779.83 965.145C2794.32 945.4 2806.52 923.638 2813.67 903.697C2817.24 893.726 2819.63 883.985 2820.31 875.037C2820.99 866.142 2820.02 857.502 2816.3 850.188L2801.93 857.373C2803.89 861.237 2804.82 866.703 2804.27 873.886C2803.73 881.016 2801.77 889.325 2798.51 898.415C2791.99 916.597 2780.62 937.009 2766.83 955.818C2753.02 974.64 2737.08 991.441 2721.69 1002.64C2705.87 1014.15 2692.51 1018.41 2683.03 1016.03L2679.04 1031.46ZM2816.29 850.165C2809.77 837.457 2795.57 825.568 2782.08 815.518C2775.18 810.37 2768.01 805.391 2761.61 800.86C2755.11 796.255 2749.46 792.143 2745.16 788.494L2734.66 800.579C2739.56 804.745 2745.76 809.233 2752.22 813.81C2758.79 818.461 2765.68 823.247 2772.39 828.242C2786.12 838.48 2797.33 848.397 2801.94 857.396L2816.29 850.165ZM2745.18 788.508C2693.95 744.716 2642.66 701.009 2591.31 657.385L2580.81 669.474C2632.16 713.087 2683.43 756.784 2734.65 800.565L2745.18 788.508ZM2591.31 657.384C2472.48 556.485 2353.39 455.65 2232.71 356.672L2222.42 368.938C2342.99 467.82 2461.98 568.576 2580.81 669.475L2591.31 657.384ZM2220.64 358.776C2190.85 408.768 2120.86 420.577 2080.74 376.973L2068.83 387.708C2117.21 440.282 2199.94 424.795 2234.49 366.833L2220.64 358.776ZM2080.75 376.989C2062.26 356.789 2051.43 328.327 2040.93 297.368C2030.66 267.072 2020.67 234.232 2003.45 208.441L1990.03 217.241C2005.79 240.857 2015.06 271.168 2025.68 302.471C2036.07 333.111 2047.77 364.697 2068.82 387.693L2080.75 376.989ZM2003.46 208.446C1979.48 172.481 1939.95 144.916 1897.9 121.941C1856.06 99.0778 1809.75 79.7963 1773.16 61.8323L1765.98 76.0944C1804.06 94.7874 1848.46 113.127 1890.1 135.879C1931.53 158.52 1968.25 184.565 1990.03 217.236L2003.46 208.446ZM1762.78 73.2507C1780.09 100.152 1783.98 118.814 1782.04 132.935C1780.09 147.16 1772.05 158.44 1761.5 170.441C1751.37 181.946 1738.23 194.718 1730.15 210.185C1721.66 226.433 1718.56 245.686 1726.66 270.759L1741.98 265.873C1735.16 244.767 1737.94 229.894 1744.43 217.46C1751.33 204.245 1762.26 193.777 1773.61 180.873C1784.53 168.464 1795.36 154.165 1797.98 135.03C1800.62 115.79 1794.78 93.3108 1776.36 64.676L1762.78 73.2507ZM1726.66 270.749C1730.48 282.637 1740.06 292.723 1751.49 301.372C1763.07 310.129 1777.53 318.137 1792.58 325.561C1807.63 332.989 1823.7 340.04 1838.42 346.711C1853.3 353.452 1866.75 359.784 1877.16 365.961L1885.46 352.306C1874.19 345.617 1859.98 338.953 1845.15 332.236C1830.18 325.451 1814.52 318.586 1799.79 311.314C1785.04 304.037 1771.65 296.558 1761.28 288.717C1750.78 280.767 1744.32 273.143 1741.98 265.883L1726.66 270.749ZM1877.14 365.952C1932.62 399.041 1986.16 435.162 2037.66 474.108L2047.45 461.451C1995.49 422.159 1941.46 385.708 1885.47 352.314L1877.14 365.952ZM2037.74 474.167C2140.55 549.929 2238.57 632.008 2335.14 716.203L2345.79 704.247C2249.08 619.933 2150.69 537.529 2047.37 461.392L2037.74 474.167ZM1620.29 160.913C1655.47 195.568 1698.46 197.399 1726.72 177.702C1755.25 157.82 1765.99 117.978 1740.65 75.6729L1726.8 83.8176C1748.49 120.015 1738.18 150.274 1717.49 164.698C1696.53 179.306 1662.13 179.645 1631.65 149.617L1620.29 160.913ZM1740.64 75.6702C1718.91 39.4247 1676.89 17.5691 1633.39 3.773C1589.63 -10.1059 1542.7 -16.3428 1509.23 -20.2149L1507.32 -4.40625C1540.69 -0.545786 1586.28 5.55858 1628.44 18.9311C1670.86 32.3864 1708.14 52.6923 1726.81 83.8203L1740.64 75.6702ZM1502.72 -6.54587C1527.51 16.8653 1543.58 44.998 1560.23 74.5743C1576.73 103.881 1593.81 134.618 1620.44 161.024L1631.84 149.764C1607.03 125.17 1590.96 96.4144 1574.29 66.7975C1557.77 37.4504 1540.63 7.23028 1513.84 -18.0753L1502.72 -6.54587ZM1265.71 18.1757C1240.67 -5.95273 1207.11 -4.18009 1175.98 6.08524C1144.74 16.3895 1113.39 35.9997 1089.91 51.462L1098.8 64.7051C1122.3 49.227 1152.04 30.7418 1181.03 21.1837C1210.13 11.5867 1235.94 11.7301 1254.47 29.5937L1265.71 18.1757ZM1091.4 65.4939C1108.75 72.2221 1126.48 83.6704 1146.15 94.6765C1165.2 105.332 1185.87 115.423 1207.05 117.022L1208.32 101.152C1191.02 99.8455 1173.08 91.4352 1154.1 80.8162C1135.75 70.5475 1116.06 57.9468 1097.31 50.6732L1091.4 65.4939ZM1207.04 117.021C1232.11 118.933 1256.81 112.071 1280.03 105.054C1303.78 97.8771 1325.89 90.5876 1347.86 89.7536L1347.29 73.8491C1322.73 74.7812 1298.26 82.9166 1275.37 89.8324C1251.96 96.9068 1229.98 102.804 1208.32 101.152L1207.04 117.021ZM1354.71 85.4567C1356.54 81.9694 1355.24 78.8277 1354.81 77.9202C1354.25 76.7476 1353.52 75.8646 1353.08 75.3684C1352.15 74.3031 1350.95 73.2686 1349.84 72.3684C1347.52 70.4928 1344.25 68.1804 1340.49 65.6521C1332.91 60.5555 1322.6 54.0842 1312.1 47.5608C1301.54 40.9991 1290.77 34.3799 1282.08 28.8729C1277.74 26.1215 1273.98 23.6911 1271.08 21.7194C1267.98 19.6161 1266.38 18.3793 1265.9 17.923L1254.67 29.3431C1256.28 30.8966 1259.03 32.8659 1261.95 34.8496C1265.07 36.9648 1268.99 39.502 1273.38 42.2835C1282.15 47.8421 1293.06 54.5489 1303.52 61.0486C1314.05 67.5867 1324.12 73.9123 1331.42 78.8229C1335.1 81.2982 1337.89 83.292 1339.65 84.7096C1340.07 85.0529 1340.4 85.3307 1340.63 85.5465C1340.88 85.7737 1340.97 85.8696 1340.95 85.8501C1340.94 85.8361 1340.86 85.7497 1340.75 85.5978C1340.65 85.4573 1340.45 85.1598 1340.25 84.7247C1340 84.2162 1338.74 81.3955 1340.44 78.146L1354.71 85.4567ZM1244.66 -28.157C1246.86 -25.7999 1253.27 -20.3245 1262 -13.6779C1270.93 -6.87961 1282.75 1.50353 1296.09 9.70977C1322.37 25.8759 1356.01 42.2939 1385.24 43.0305L1385.69 27.1194C1361.1 26.4996 1330.64 12.1987 1304.61 -3.8142C1291.8 -11.6975 1280.41 -19.7689 1271.83 -26.3024C1263.05 -32.9876 1257.66 -37.7214 1256.5 -38.9627L1244.66 -28.157ZM1385.48 43.033C1389.5 43.0151 1416.48 43.2998 1443.51 42.5981C1457.03 42.2471 1470.75 41.6463 1481.77 40.6185C1487.26 40.1062 1492.26 39.4723 1496.3 38.6686C1498.32 38.2675 1500.25 37.7942 1501.97 37.2157C1503.53 36.6872 1505.57 35.8581 1507.3 34.457L1497.13 22.1555C1497.64 21.7432 1497.76 21.8318 1496.81 22.1549C1496 22.4282 1494.81 22.7407 1493.18 23.0644C1489.93 23.7104 1485.56 24.2824 1480.3 24.7725C1469.83 25.7495 1456.54 26.3394 1443.14 26.6873C1416.33 27.3831 1389.83 27.0974 1385.45 27.1169L1385.48 43.033ZM1508.85 23.7955C1497.65 7.61811 1484.65 -13.1136 1470.02 -30.9494C1455.4 -48.7815 1438.07 -65.1326 1417.28 -72.0054L1412.14 -56.9072C1428.5 -51.5007 1443.44 -38.075 1457.52 -20.8979C1471.61 -3.72449 1483.78 15.7854 1495.58 32.8171L1508.85 23.7955ZM1417.21 -72.0261C1390.12 -80.7318 1357.1 -79.0254 1325.39 -73.9684C1293.55 -68.8917 1261.71 -60.1862 1236.99 -54.0926L1240.84 -38.6491C1266.11 -44.8782 1296.94 -53.3183 1327.9 -58.2551C1358.98 -63.2116 1388.87 -64.3866 1412.21 -56.8865L1417.21 -72.0261ZM1233.01 -40.9525L1244.53 -28.6506L1256.34 -39.4872L1244.82 -51.7892L1233.01 -40.9525ZM1371.53 103.141C1362.55 101.647 1352.62 102.847 1342.8 105.237C1332.9 107.647 1322.52 111.418 1312.44 115.566C1302.36 119.715 1292.32 124.348 1283.18 128.506C1273.94 132.716 1265.73 136.39 1258.93 138.854L1264.42 153.8C1271.94 151.077 1280.74 147.122 1289.87 142.961C1299.13 138.748 1308.84 134.267 1318.58 130.26C1328.33 126.251 1337.84 122.823 1346.6 120.692C1355.44 118.54 1362.93 117.857 1368.82 118.837L1371.53 103.141ZM1257.77 153.296C1314.42 184.253 1357.89 183.811 1418.43 176.912L1416.64 161.1C1357.4 167.852 1317.92 167.963 1265.57 139.358L1257.77 153.296ZM1423.42 163.572C1406.73 145.837 1391.3 126.964 1377.15 107.096L1364 116.286C1378.55 136.729 1394.44 156.164 1411.64 174.44L1423.42 163.572ZM1383.57 86.9377C1393.35 100.774 1405.42 119.727 1419.05 135.645C1432.6 151.484 1449.11 166.101 1468.81 169.995L1472 154.387C1457.89 151.598 1444.39 140.595 1431.33 125.338C1418.34 110.16 1407.19 92.5393 1396.75 77.7846L1383.57 86.9377ZM1468.81 169.995C1487.55 173.7 1508.85 170.073 1528.54 165.737C1548.98 161.235 1567.54 156.041 1583.41 154.942L1582.33 139.065C1564.87 140.274 1544.09 146.015 1525.09 150.201C1505.33 154.552 1487.06 157.364 1472 154.387L1468.81 169.995ZM1589.11 141.966C1581.77 133.053 1575.74 124.205 1570.07 115.583C1564.48 107.075 1559.07 98.5127 1553.3 90.791C1541.5 74.9928 1527.49 61.7458 1503.97 54.9759L1499.43 70.2599C1518.48 75.7425 1529.84 86.1937 1540.36 100.278C1545.76 107.497 1550.76 115.422 1556.58 124.289C1562.34 133.044 1568.74 142.459 1576.63 152.04L1589.11 141.966ZM1503.94 54.9691C1488.06 50.4493 1465.35 51.9211 1443.56 54.6666C1432.45 56.067 1421.18 57.8611 1410.64 59.5727C1400.03 61.2949 1390.23 62.9197 1381.81 64.035L1383.9 79.8103C1392.62 78.6556 1402.72 76.9799 1413.2 75.279C1423.74 73.5675 1434.76 71.8158 1445.55 70.4552C1467.58 67.6788 1487.16 66.7683 1499.46 70.2667L1503.94 54.9691ZM1376.23 76.4465L1383.44 86.8206L1396.7 77.773L1389.49 67.3989L1376.23 76.4465ZM1660.19 293.551C1685.69 272.973 1693.66 250.423 1687.93 229.976C1682.43 210.35 1664.97 195.369 1645.54 187.658L1639.52 202.432C1656 208.974 1668.68 220.915 1672.43 234.271C1675.94 246.807 1672.26 263.303 1650.05 281.227L1660.19 293.551ZM1645.54 187.658C1625.78 179.811 1598.91 179.451 1571.81 180.646C1543.88 181.877 1515.56 184.76 1489.81 184.527L1489.62 200.443C1515.83 200.68 1545.97 197.715 1572.48 196.546C1599.82 195.34 1623.38 196.025 1639.52 202.432L1645.54 187.658ZM1489.84 184.527C1458.13 184.146 1426.49 186.361 1395.18 190.976L1397.51 206.719C1427.99 202.224 1458.78 200.072 1489.6 200.442L1489.84 184.527ZM1391.19 204.972C1421.65 230.039 1473.95 263.149 1525.39 284.73C1551.1 295.518 1577.01 303.605 1600.12 306.204C1623.04 308.782 1644.67 306.109 1660.2 293.545L1650.04 281.234C1639.45 289.8 1623.14 292.769 1601.98 290.389C1581 288.03 1556.69 280.558 1531.7 270.074C1481.74 249.11 1430.77 216.819 1401.49 192.723L1391.19 204.972ZM1482.16 -102.052L1454.51 -101.162L1454.98 -85.2545L1482.64 -86.1436L1482.16 -102.052ZM1448.58 -88.0824C1483.65 -46.7257 1526.09 -39.7716 1571.54 -30.692C1617.02 -21.6081 1667.59 -10.2411 1724.36 37.4792L1734.8 25.336C1674.88 -25.0287 1621.04 -37.0507 1574.77 -46.294C1528.48 -55.5416 1491.85 -61.8529 1460.91 -98.3344L1448.58 -88.0824ZM1737.54 30.2372C1729.3 -25.6497 1683.88 -59.0222 1632.87 -78.0548C1581.68 -97.1556 1522.65 -102.755 1482.43 -101.925L1482.72 -86.0125C1521.56 -86.8136 1578.42 -81.3449 1627.16 -63.1599C1676.08 -44.9066 1714.64 -14.7755 1721.62 32.578L1737.54 30.2372Z" fill="#427265" mask="url(#path-9-inside-4_439_2208)"/>
</g>
<g opacity="0.6">
<mask id="path-11-inside-5_439_2208" fill="white">
<path d="M1443.61 423.924C1421.67 356.41 1391.5 291.852 1353.75 231.526C1416.59 255.92 1542.86 302.748 1562.28 378.588C1579.95 447.791 1466.93 496.994 1443.44 423.796M1693.71 800.379C1775.99 872.175 1856.8 945.519 1936.29 1020.39C1957.93 1040.88 2004.76 1106.21 2034.04 1113.86C2086.66 1127.06 2184.85 988.599 2162.12 943.891C2150.99 922.184 2111.3 900.278 2092.92 884.647C2041.7 840.86 1990.42 797.158 1939.07 753.54C1820.24 652.641 1701.19 551.845 1580.57 452.915C1548.4 506.891 1472.04 520.54 1427.79 472.451C1388.25 429.255 1382.73 352.358 1349.75 302.951C1303.99 234.315 1197.24 195.73 1122.58 159.074C1194.03 270.145 1057.49 266.067 1087.33 358.426C1099.64 396.723 1190.98 423.514 1234.32 449.243C1290.05 482.484 1343.83 518.771 1395.56 557.889C1498.63 633.839 1596.83 716.08 1693.47 800.335M978.975 245.375C1044.64 310.058 1133.75 248.358 1086.73 169.855C1046.34 102.482 928.115 85.5322 861.283 77.7996C912.869 126.516 927.706 194.505 979.145 245.504M613.099 113.995C569.527 72.0029 494.349 117.253 447.362 148.194C483.457 162.196 522.214 196.292 560.689 199.197C607.418 202.761 654.047 173.678 700.583 171.912C702.583 168.106 621.639 121.782 613.294 113.743M603.591 56.5503C610.295 63.7474 684.644 123.829 738.474 125.185C746.863 125.148 845.462 126.326 855.22 118.416C832.227 85.2074 804.875 37.9332 767.718 25.6539C717.282 9.44811 641.906 31.4166 591.925 43.7393L603.445 56.0413M723.181 201.099C693.433 196.151 643.33 226.065 614.678 236.437C669.178 266.218 710.652 265.942 770.54 259.116C753.587 241.111 737.928 221.956 723.582 201.801M743.164 172.471C763.391 201.063 789.609 245.618 823.409 252.301C857.209 258.983 902.542 239.422 935.879 237.113C905.427 200.125 897.279 164.981 854.708 152.728C826.525 144.71 770.12 157.493 735.865 162.033L743.079 172.407M1008.12 377.499C1055.84 338.997 1031.44 299.409 995.538 285.155C959.638 270.902 894.678 283.065 842.724 282.595C811.462 282.219 780.244 284.403 749.349 288.957C809.085 338.121 955.889 419.759 1008.12 377.499ZM835.408 -3.98738L807.753 -3.09823C873.762 74.7399 965.895 23.4327 1082.59 121.518C1067.37 18.2773 914.641 -5.48944 835.578 -3.8587"/>
</mask>
<path d="M1716.2 402.463L1717.44 400.869L1711.05 396.043L1709.82 397.637L1716.2 402.463ZM1717.48 401.165L1718.19 400.243L1711.81 395.417L1711.09 396.34L1717.48 401.165ZM1353.75 231.526L1356.7 224.117L1334.17 215.368L1346.91 235.73L1353.75 231.526ZM1562.28 378.588L1570.07 376.618L1570.07 376.613L1562.28 378.588ZM1936.29 1020.39L1941.86 1014.63L1941.85 1014.63L1941.85 1014.62L1936.29 1020.39ZM2034.04 1113.86L2031.97 1121.55L2032 1121.56L2032.04 1121.57L2034.04 1113.86ZM2162.12 943.891L2169.3 940.298L2169.3 940.287L2169.29 940.275L2162.12 943.891ZM2092.92 884.647L2087.65 890.675L2087.66 890.682L2087.67 890.689L2092.92 884.647ZM1939.07 753.54L1944.32 747.495L1944.31 747.494L1939.07 753.54ZM1580.57 452.915L1585.71 446.782L1578.45 440.826L1573.65 448.886L1580.57 452.915ZM1427.79 472.451L1421.83 477.803L1421.83 477.811L1421.84 477.818L1427.79 472.451ZM1349.75 302.951L1343.03 307.347L1343.04 307.351L1349.75 302.951ZM1122.58 159.074L1126.17 151.942L1100.26 139.225L1115.79 163.361L1122.58 159.074ZM1087.33 358.426L1094.99 355.993L1094.99 355.983L1087.33 358.426ZM1234.32 449.243L1238.48 442.424L1238.47 442.42L1238.47 442.416L1234.32 449.243ZM1395.56 557.889L1390.67 564.218L1390.71 564.248L1390.75 564.277L1395.56 557.889ZM1086.73 169.855L1093.65 165.783L1093.65 165.78L1086.73 169.855ZM861.283 77.7996L862.239 69.8953L838.318 67.1275L855.723 83.5643L861.283 77.7996ZM447.362 148.194L442.921 141.572L430.063 150.039L444.409 155.604L447.362 148.194ZM560.689 199.197L561.329 191.262L561.323 191.262L560.689 199.197ZM700.583 171.912L700.869 179.864L705.552 179.686L707.716 175.567L700.583 171.912ZM738.474 125.185L738.247 133.141L738.367 133.144L738.487 133.143L738.474 125.185ZM855.22 118.416L860.305 124.567L866.028 119.928L861.858 113.906L855.22 118.416ZM767.718 25.6539L770.284 18.1048L770.253 18.0943L770.221 18.084L767.718 25.6539ZM591.925 43.7393L590.002 36.0175L576.769 39.2799L586.019 49.1576L591.925 43.7393ZM614.678 236.437L611.935 228.964L595.34 234.971L610.776 243.406L614.678 236.437ZM770.54 259.116L771.438 267.022L787.29 265.216L776.431 253.682L770.54 259.116ZM935.879 237.113L936.418 245.052L951.918 243.979L942.119 232.076L935.879 237.113ZM854.708 152.728L856.973 145.086L856.962 145.083L856.95 145.079L854.708 152.728ZM735.865 162.033L734.82 154.145L721.806 155.87L729.236 166.557L735.865 162.033ZM1008.12 377.499L1003.05 371.338L1003.05 371.344L1008.12 377.499ZM842.724 282.595L842.603 290.553L842.615 290.553L842.627 290.553L842.724 282.595ZM749.349 288.957L748.186 281.086L730.381 283.711L744.197 295.082L749.349 288.957ZM807.753 -3.09823L807.515 -11.0522L790.947 -10.5195L801.587 2.02774L807.753 -3.09823ZM1082.59 121.518L1077.37 127.589L1093.62 141.252L1090.54 120.347L1082.59 121.518ZM1451.27 421.468C1429.12 353.338 1398.68 288.194 1360.59 227.322L1346.91 235.73C1384.32 295.51 1414.21 359.481 1435.96 426.381L1451.27 421.468ZM1350.79 238.936C1382.37 251.191 1429.02 268.773 1470.22 292.636C1511.84 316.736 1545.63 345.988 1554.48 380.563L1570.07 376.613C1559.51 335.348 1520.46 303.266 1478.37 278.894C1435.88 254.284 1387.98 236.255 1356.7 224.117L1350.79 238.936ZM1554.48 380.559C1562.01 410.048 1541.9 436.382 1515.25 447.234C1502.12 452.582 1488.39 453.651 1477.02 449.812C1465.97 446.081 1456.27 437.44 1451.11 421.368L1435.78 426.224C1442.36 446.751 1455.59 459.408 1471.79 464.877C1487.66 470.237 1505.49 468.404 1521.34 461.951C1552.65 449.2 1580.22 416.332 1570.07 376.618L1554.48 380.559ZM1688.38 806.355C1770.58 878.082 1851.32 951.358 1930.74 1026.16L1941.85 1014.62C1862.28 939.68 1781.39 866.267 1699.04 794.404L1688.38 806.355ZM1930.72 1026.15C1935.79 1030.95 1942.51 1038.55 1950.46 1047.75C1958.3 1056.81 1967.2 1067.25 1976.32 1077.27C1985.44 1087.29 1994.98 1097.1 2004.21 1104.95C2013.24 1112.63 2022.8 1119.16 2031.97 1121.55L2036.11 1106.16C2030.64 1104.73 2023.37 1100.23 2014.71 1092.86C2006.25 1085.67 1997.24 1076.44 1988.28 1066.6C1979.34 1056.78 1970.64 1046.57 1962.69 1037.38C1954.87 1028.33 1947.61 1020.08 1941.86 1014.63L1930.72 1026.15ZM2032.04 1121.57C2048.88 1125.8 2067.51 1117.7 2084.2 1105.56C2101.3 1093.12 2118.36 1074.99 2132.84 1055.25C2147.32 1035.51 2159.53 1013.75 2166.67 993.807C2170.25 983.836 2172.64 974.095 2173.32 965.148C2174 956.252 2173.02 947.612 2169.3 940.298L2154.93 947.483C2156.9 951.347 2157.83 956.813 2157.28 963.996C2156.74 971.126 2154.77 979.435 2151.52 988.525C2145 1006.71 2133.63 1027.12 2119.83 1045.93C2106.02 1064.75 2090.09 1081.55 2074.7 1092.75C2058.88 1104.26 2045.51 1108.52 2036.04 1106.14L2032.04 1121.57ZM2169.29 940.275C2162.78 927.568 2148.58 915.678 2135.09 905.628C2128.18 900.48 2121.01 895.501 2114.62 890.97C2108.12 886.366 2102.46 882.254 2098.17 878.604L2087.67 890.689C2092.57 894.855 2098.77 899.343 2105.23 903.921C2111.79 908.571 2118.69 913.357 2125.39 918.352C2139.13 928.59 2150.33 938.507 2154.94 947.506L2169.29 940.275ZM2098.19 878.618C2046.96 834.826 1995.67 791.119 1944.32 747.495L1933.82 759.585C1985.16 803.198 2036.44 846.894 2087.65 890.675L2098.19 878.618ZM1944.31 747.494C1825.49 646.595 1706.39 545.76 1585.71 446.782L1575.43 459.048C1695.99 557.931 1814.99 658.686 1933.82 759.586L1944.31 747.494ZM1573.65 448.886C1543.85 498.878 1473.87 510.687 1433.75 467.084L1421.84 477.818C1470.22 530.392 1552.95 514.905 1587.5 456.944L1573.65 448.886ZM1433.76 467.099C1415.27 446.899 1404.44 418.437 1393.94 387.478C1383.66 357.182 1373.68 324.342 1356.46 298.551L1343.04 307.351C1358.8 330.967 1368.07 361.278 1378.69 392.581C1389.08 423.221 1400.78 454.807 1421.83 477.803L1433.76 467.099ZM1356.46 298.556C1332.49 262.592 1292.95 235.026 1250.91 212.051C1209.07 189.188 1162.76 169.906 1126.17 151.942L1118.99 166.205C1157.06 184.898 1201.46 203.237 1243.1 225.989C1284.54 248.63 1321.25 274.675 1343.03 307.347L1356.46 298.556ZM1115.79 163.361C1133.1 190.262 1136.99 208.925 1135.05 223.045C1133.1 237.271 1125.06 248.55 1114.5 260.551C1104.38 272.056 1091.23 284.828 1083.16 300.295C1074.67 316.544 1071.57 335.796 1079.67 360.869L1094.99 355.983C1088.17 334.877 1090.95 320.004 1097.44 307.57C1104.34 294.355 1115.27 283.887 1126.62 270.983C1137.54 258.574 1148.37 244.275 1150.99 225.14C1153.63 205.9 1147.79 183.421 1129.36 154.786L1115.79 163.361ZM1079.66 360.859C1083.49 372.747 1093.07 382.833 1104.5 391.482C1116.08 400.239 1130.54 408.247 1145.58 415.671C1160.64 423.1 1176.71 430.15 1191.43 436.821C1206.31 443.562 1219.76 449.895 1230.16 456.071L1238.47 442.416C1227.2 435.728 1212.98 429.063 1198.16 422.347C1183.19 415.562 1167.53 408.696 1152.79 401.424C1138.05 394.147 1124.66 386.668 1114.29 378.827C1103.78 370.877 1097.33 363.253 1094.99 355.993L1079.66 360.859ZM1230.15 456.062C1285.63 489.151 1339.17 525.273 1390.67 564.218L1400.45 551.561C1348.5 512.269 1294.47 475.818 1238.48 442.424L1230.15 456.062ZM1390.75 564.277C1493.56 640.039 1591.57 722.118 1688.15 806.313L1698.8 794.357C1602.09 710.043 1503.7 627.639 1400.37 551.502L1390.75 564.277ZM973.294 251.023C1008.48 285.678 1051.47 287.509 1079.73 267.812C1108.25 247.93 1118.99 208.088 1093.65 165.783L1079.81 173.928C1101.49 210.125 1091.19 240.384 1070.49 254.808C1049.54 269.416 1015.14 269.755 984.656 239.727L973.294 251.023ZM1093.65 165.78C1071.92 129.535 1029.89 107.679 986.396 93.8832C942.639 80.0042 895.706 73.7674 862.239 69.8953L860.327 85.7039C893.693 89.5644 939.288 95.6688 981.448 109.041C1023.87 122.497 1061.15 142.803 1079.81 173.93L1093.65 165.78ZM855.723 83.5643C880.513 106.975 896.59 135.108 913.242 164.684C929.742 193.991 946.812 224.729 973.446 251.134L984.845 239.874C960.039 215.281 943.972 186.525 927.297 156.908C910.774 127.561 893.639 97.3404 866.844 72.0349L855.723 83.5643ZM618.718 108.286C593.681 84.1574 560.116 85.9301 528.988 96.1954C497.742 106.5 466.402 126.11 442.921 141.572L451.804 154.815C475.309 139.337 505.051 120.852 534.034 111.294C563.135 101.697 588.944 101.84 607.48 119.704L618.718 108.286ZM444.409 155.604C461.754 162.332 479.491 173.781 499.16 184.787C518.204 195.442 538.878 205.533 560.054 207.132L561.323 191.262C544.025 189.956 526.084 181.545 507.106 170.926C488.755 160.658 469.066 148.057 450.315 140.783L444.409 155.604ZM560.048 207.132C585.117 209.044 609.815 202.182 633.037 195.164C656.784 187.987 678.894 180.698 700.869 179.864L700.298 163.959C675.736 164.891 651.264 173.027 628.379 179.943C604.97 187.017 582.99 192.914 561.329 191.262L560.048 207.132ZM707.716 175.567C709.548 172.08 708.243 168.938 707.812 168.03C707.255 166.858 706.528 165.975 706.091 165.479C705.152 164.413 703.959 163.379 702.845 162.479C700.523 160.603 697.254 158.291 693.495 155.762C685.919 150.666 675.609 144.194 665.107 137.671C654.542 131.109 643.775 124.49 635.085 118.983C630.743 116.232 626.989 113.801 624.086 111.83C620.99 109.726 619.385 108.489 618.912 108.033L607.676 119.453C609.289 121.007 612.039 122.976 614.959 124.96C618.072 127.075 621.995 129.612 626.384 132.394C635.156 137.952 646.064 144.659 656.529 151.159C667.056 157.697 677.128 164.023 684.428 168.933C688.107 171.408 690.898 173.402 692.653 174.82C693.078 175.163 693.403 175.441 693.64 175.657C693.89 175.884 693.975 175.98 693.958 175.96C693.945 175.946 693.87 175.86 693.761 175.708C693.661 175.568 693.46 175.27 693.253 174.835C693.012 174.326 691.744 171.506 693.451 168.256L707.716 175.567ZM597.671 61.9531C599.867 64.3103 606.281 69.7857 615.01 76.4322C623.938 83.2306 635.761 91.6137 649.101 99.8199C675.379 115.986 709.014 132.404 738.247 133.141L738.702 117.23C714.104 116.61 683.649 102.309 657.62 86.296C644.805 78.4127 633.42 70.3413 624.84 63.8078C616.061 57.1225 610.667 52.3888 609.511 51.1474L597.671 61.9531ZM738.487 133.143C742.503 133.125 769.491 133.41 796.522 132.708C810.04 132.357 823.755 131.756 834.774 130.729C840.266 130.216 845.266 129.582 849.308 128.779C851.326 128.378 853.261 127.904 854.972 127.326C856.537 126.797 858.577 125.968 860.305 124.567L850.135 112.266C850.644 111.853 850.77 111.942 849.814 112.265C849.005 112.538 847.812 112.851 846.184 113.175C842.934 113.821 838.564 114.393 833.309 114.883C822.834 115.86 809.546 116.45 796.146 116.797C769.34 117.493 742.834 117.208 738.461 117.227L738.487 133.143ZM861.858 113.906C850.657 97.7283 837.658 76.9965 823.03 59.1608C808.405 41.3286 791.081 24.9776 770.284 18.1048L765.151 33.203C781.511 38.6095 796.443 52.0352 810.531 69.2122C824.616 86.3857 836.79 105.896 848.582 122.927L861.858 113.906ZM770.221 18.084C743.127 9.37842 710.104 11.0848 678.393 16.1417C646.559 21.2185 614.718 29.9239 590.002 36.0175L593.848 51.4611C619.114 45.232 649.951 36.7919 680.908 31.8551C711.989 26.8986 741.873 25.7236 765.215 33.2237L770.221 18.084ZM586.019 49.1576L597.54 61.4596L609.351 50.6229L597.83 38.321L586.019 49.1576ZM724.536 193.251C715.555 191.757 705.623 192.958 695.807 195.347C685.906 197.757 675.53 201.528 665.45 205.676C655.364 209.825 645.322 214.458 636.192 218.616C626.946 222.826 618.74 226.5 611.935 228.964L617.422 243.91C624.943 241.187 633.744 237.232 642.881 233.071C652.132 228.858 661.848 224.377 671.588 220.37C681.333 216.361 690.851 212.933 699.607 210.802C708.446 208.65 715.933 207.967 721.826 208.947L724.536 193.251ZM610.776 243.406C667.428 274.364 710.9 273.921 771.438 267.022L769.643 251.211C710.404 257.962 670.928 258.073 618.581 229.468L610.776 243.406ZM776.431 253.682C759.733 235.947 744.302 217.074 730.161 197.206L717.003 206.396C731.554 226.839 747.442 246.275 764.65 264.55L776.431 253.682ZM736.572 177.048C746.361 190.884 758.43 209.837 772.054 225.755C785.611 241.595 802.119 256.211 821.812 260.105L825.006 244.497C810.9 241.708 797.398 230.705 784.339 215.448C771.348 200.27 760.194 182.649 749.756 167.895L736.572 177.048ZM821.812 260.105C840.553 263.81 861.852 260.183 881.543 255.847C901.987 251.345 920.548 246.151 936.418 245.052L935.34 229.175C917.873 230.384 897.099 236.126 878.092 240.311C858.333 244.662 840.066 247.474 825.006 244.497L821.812 260.105ZM942.119 232.076C934.781 223.163 928.748 214.315 923.08 205.694C917.487 197.185 912.079 188.623 906.309 180.901C894.503 165.103 880.496 151.856 856.973 145.086L852.442 160.37C871.491 165.853 882.843 176.304 893.368 190.388C898.762 197.608 903.762 205.533 909.591 214.4C915.346 223.154 921.751 232.569 929.639 242.151L942.119 232.076ZM856.95 145.079C841.063 140.559 818.353 142.031 796.57 144.777C785.459 146.177 774.189 147.971 763.643 149.683C753.032 151.405 743.235 153.03 734.82 154.145L736.911 169.92C745.623 168.766 755.722 167.09 766.202 165.389C776.747 163.678 787.762 161.926 798.557 160.565C820.586 157.789 840.169 156.878 852.465 160.377L856.95 145.079ZM729.236 166.557L736.45 176.931L749.708 167.883L742.494 157.509L729.236 166.557ZM1013.2 383.661C1038.69 363.084 1046.67 340.533 1040.93 320.086C1035.43 300.46 1017.97 285.479 998.551 277.768L992.526 292.542C1009 299.084 1021.69 311.025 1025.44 324.381C1028.95 336.917 1025.26 353.413 1003.05 371.338L1013.2 383.661ZM998.551 277.768C978.787 269.921 951.917 269.561 924.816 270.756C896.883 271.988 868.567 274.87 842.82 274.637L842.627 290.553C868.834 290.79 898.975 287.825 925.486 286.656C952.828 285.451 976.389 286.135 992.526 292.542L998.551 277.768ZM842.844 274.637C811.139 274.257 779.492 276.471 748.186 281.086L750.512 296.829C780.996 292.334 811.785 290.182 842.603 290.553L842.844 274.637ZM744.197 295.082C774.654 320.149 826.959 353.259 878.392 374.84C904.104 385.629 930.014 393.715 953.124 396.314C976.049 398.892 997.674 396.219 1013.2 383.655L1003.05 371.344C992.457 379.91 976.144 382.879 954.985 380.499C934.011 378.141 909.692 370.668 884.706 360.184C834.745 339.22 783.78 306.929 754.502 282.833L744.197 295.082ZM835.17 -11.9413L807.515 -11.0522L807.991 4.8557L835.647 3.96654L835.17 -11.9413ZM801.587 2.02774C836.659 43.3844 879.101 50.3385 924.551 59.4181C970.023 68.5021 1020.6 79.869 1077.37 127.589L1087.8 115.446C1027.88 65.0815 974.046 53.0595 927.776 43.8162C881.485 34.5686 844.856 28.2572 813.919 -8.2242L801.587 2.02774ZM1090.54 120.347C1082.31 64.4605 1036.89 31.088 985.88 12.0554C934.686 -7.04541 875.655 -12.6447 835.434 -11.8151L835.723 4.09769C874.565 3.29656 931.429 8.76529 980.169 26.9503C1029.09 45.2035 1067.65 75.3347 1074.63 122.688L1090.54 120.347Z" fill="#427265" mask="url(#path-11-inside-5_439_2208)"/>
</g>
</g>
</g>
</svg>
