<svg xmlns="http://www.w3.org/2000/svg" width="1840.048" height="1560.799" viewBox="0 0 1840.048 1560.799">
  <path id="Subtraction_1" data-name="Subtraction 1" d="M442.245,1560.8c-24.55,0-48.418-.636-70.939-1.891-22.348-1.245-44.091-3.139-64.625-5.63-20.328-2.465-40.128-5.595-58.849-9.3-18.489-3.661-36.526-8-53.61-12.909-16.828-4.831-33.284-10.366-48.911-16.451-15.348-5.976-30.4-12.68-44.75-19.926-14.039-7.091-27.876-14.942-41.126-23.336-12.912-8.18-25.712-17.156-38.042-26.68-97.809-75.546-168.443-186.044-257.869-325.94l-.143-.224c-7.995-12.507-16.262-25.439-24.654-38.511-18.013-28.057-35.23-57.2-51.171-86.615-15.678-28.93-30.366-58.574-43.656-88.107-13.149-29.22-25.123-58.76-35.59-87.8-10.424-28.923-19.5-57.755-26.973-85.7-7.5-28.02-13.485-55.538-17.8-81.789a635.472,635.472,0,0,1-8.084-76.084,437.04,437.04,0,0,1,2.187-68.58c1.252-10.717,2.974-21.118,5.117-30.913a254.652,254.652,0,0,1,7.892-28.362,198.191,198.191,0,0,1,15.022-33.573,156.506,156.506,0,0,1,20.279-28.062,137.769,137.769,0,0,1,25.7-22.013,141.679,141.679,0,0,1,31.289-15.425,336.317,336.317,0,0,1,40.035-11.17c13.142-2.835,27.335-5.15,42.185-6.881,13.812-1.61,28.231-2.747,44.082-3.478,14.041-.648,29-.963,45.726-.963,27.96,0,56.1.868,85.9,1.786h.031l1.581.049h.014c27.914.86,59.552,1.836,90.631,1.836,29.318,0,55.285-.86,79.386-2.63,13.686-1.005,27.08-2.333,39.811-3.948,13.6-1.724,26.961-3.841,39.723-6.29,13.489-2.589,26.782-5.642,39.509-9.072,13.353-3.6,26.531-7.736,39.17-12.295,13.184-4.756,26.206-10.125,38.7-15.957,12.981-6.058,25.8-12.807,38.116-20.06,16.4-9.664,32.1-19.714,46.668-29.87,13.658-9.523,26.7-19.409,38.767-29.383,11.214-9.27,21.907-18.884,31.783-28.574,9.067-8.9,17.72-18.13,25.72-27.442A411.853,411.853,0,0,0,507.4,92.45C517.1,76.974,524.547,63,531.115,50.674c8.438-15.839,15.1-28.349,22.828-37.1A41.261,41.261,0,0,1,566.585,3.508,35.512,35.512,0,0,1,582.628,0H1395.05V488.508A694,694,0,0,0,1375.4,353.89c-4.852-19.348-10.587-38.335-17.046-56.436-6.027-16.889-12.755-33.212-20-48.514a426.118,426.118,0,0,0-21.557-40.087,299.478,299.478,0,0,0-21.719-31.155,169.4,169.4,0,0,0-20.488-21.718c-6.43-5.577-12.439-9.539-17.86-11.777-16.288-6.722-28.477-11.059-39.522-14.062a162.208,162.208,0,0,0-18.843-4.012,124.719,124.719,0,0,0-54.5,3.772,170.512,170.512,0,0,0-19.4,6.96c-6.722,2.861-13.775,6.317-20.964,10.27-7.287,4.008-14.988,8.68-22.89,13.884-7.976,5.254-16.448,11.244-25.181,17.8-17.726,13.31-36.927,29.2-58.7,48.569-21.074,18.749-37.328,34.082-50.387,46.4l0,0c-66.425,62.665-66.425,62.665-298.9,141.557-19.311,6.553-41.2,13.981-64.706,21.983-10.857,3.7-21.494,7.87-31.616,12.407-9.91,4.442-19.6,9.352-28.8,14.6-9,5.13-17.783,10.72-26.1,16.615-8.131,5.762-16.046,11.975-23.525,18.466-7.3,6.34-14.39,13.118-21.065,20.147-6.512,6.859-12.812,14.146-18.725,21.659-5.761,7.321-11.313,15.06-16.5,23-5.051,7.73-9.9,15.863-14.4,24.174-31.586,58.285-49.673,130.718-53.757,215.289a848.758,848.758,0,0,0,1.722,104.625c2.2,28.956,5.78,58.616,10.647,88.154,4.33,26.275,8.9,47.59,11.967,60.844,3.262,14.088,5.581,22.343,5.678,22.687.077.2,7.826,20.151,22.129,49.031,8.459,17.079,17.558,33.987,27.044,50.253,11.855,20.33,24.354,39.712,37.148,57.607,32.562,45.544,67.2,81.834,102.964,107.86a299.38,299.38,0,0,0,31.414,20.071,250.5,250.5,0,0,0,33.58,15.474,218.75,218.75,0,0,0,35.695,9.959,205.209,205.209,0,0,0,37.758,3.524,237.738,237.738,0,0,0,39.686-3.524,325.672,325.672,0,0,0,41.144-9.958,445.3,445.3,0,0,0,42.047-15.474c13.676-5.794,27.94-12.547,42.4-20.071,50-26.026,104.5-62.316,161.983-107.86,22.586-17.9,45.69-37.277,68.67-57.607,18.387-16.267,36.737-33.174,54.541-50.253,30.479-29.237,48.774-48.833,48.955-49.027,16.246-23.717,31.685-47.85,45.888-71.731,13.788-23.184,26.786-46.758,38.631-70.067,11.486-22.6,22.2-45.559,31.834-68.236,9.333-21.958,17.911-44.244,25.5-66.24,7.336-21.273,13.936-42.833,19.617-64.078,5.488-20.521,10.265-41.3,14.2-61.75,3.793-19.72,6.9-39.657,9.24-59.257,2.25-18.867,3.845-37.909,4.74-56.6V1080l-.017.015c-.911.81-9.322,8.276-23.941,20.644-14.177,11.994-37.255,31.18-66.689,54.465-33.078,26.169-67.277,52.077-101.647,77-42.956,31.153-86.3,60.852-128.83,88.272-108.249,69.789-211.915,125.4-308.117,165.275-27.808,11.528-55.354,21.875-81.873,30.754-27.912,9.346-55.456,17.324-81.866,23.711a780.178,780.178,0,0,1-80.888,15.26c-13.433,1.772-26.815,3.125-39.774,4.02C468.167,1560.335,454.99,1560.8,442.245,1560.8Z" transform="translate(444.997 0)" fill="#c9523c"/>
</svg>
